<svg xmlns="http://www.w3.org/2000/svg" width="50" height="51" fill="none" id="discord">
  <path fill="#000" fill-rule="evenodd" d="M10.06 32.98a1.56 1.56 0 0 1 2.097-.7c5.107 2.554 9.022 3.742 12.843 3.742s7.736-1.188 12.843-3.742a1.562 1.562 0 1 1 1.397 2.795c-5.31 2.655-9.728 4.072-14.24 4.072s-8.93-1.417-14.24-4.072a1.56 1.56 0 0 1-.7-2.096" clip-rule="evenodd"></path>
  <path fill="#000" fill-rule="evenodd" d="m31.556 7.146-.306 1.532zl.008.001.014.003.051.01.185.04a38.492 38.492 0 0 1 2.89.765c1.734.534 3.992 1.368 5.746 2.538 4.28 2.854 5.912 8.426 6.564 13.078.56 4 .447 7.782.398 9.42-.01.303-.016.533-.016.677 0 .288-.08.57-.23.815-1.632 2.668-4.856 4.654-7.402 5.925a40 40 0 0 1-4.497 1.9q-.194.067-.301.102l-.083.027-.023.008-.007.002h-.002s-.002.001-.476-1.488l.476 1.489a1.564 1.564 0 0 1-1.873-.79l-2.084-4.166a1.563 1.563 0 0 1 2.795-1.398l1.464 2.928.062-.024c.825-.317 1.95-.785 3.153-1.386 2.34-1.168 4.693-2.703 5.911-4.424l.01-.37c.049-1.724.145-5.132-.37-8.814-.636-4.539-2.129-8.862-5.202-10.911-1.37-.914-3.28-1.642-4.932-2.15a35 35 0 0 0-1.689-.474l-1.532 3.064c-.265.53-.805.864-1.397.864H25a1.562 1.562 0 1 1 0-3.125h3.201l1.651-3.303a1.56 1.56 0 0 1 1.704-.833" clip-rule="evenodd"></path>
  <path fill="#000" fill-rule="evenodd" d="m18.503 7.146.306 1.532zl-.008.001-.014.003-.051.01-.185.04a38.492 38.492 0 0 0-2.89.765c-1.734.534-3.992 1.368-5.746 2.538-4.28 2.854-5.913 8.426-6.564 13.078-.56 4-.447 7.782-.398 9.42.01.303.016.533.016.677 0 .288.08.57.23.815 1.632 2.668 4.856 4.654 7.402 5.925a40 40 0 0 0 4.497 1.9q.194.067.301.102l.083.027.023.008.007.002h.002s.002.001.476-1.488l-.476 1.489a1.564 1.564 0 0 0 1.873-.79l2.084-4.166a1.563 1.563 0 0 0-2.795-1.398l-1.464 2.928-.062-.024a37 37 0 0 1-3.153-1.386c-2.34-1.168-4.693-2.703-5.911-4.424l-.01-.37c-.049-1.724-.145-5.132.37-8.814.636-4.539 2.129-8.862 5.202-10.911 1.37-.914 3.28-1.642 4.932-2.15.638-.197 1.22-.355 1.689-.474l1.532 3.064c.264.53.805.864 1.397.864h4.167a1.562 1.562 0 1 0 0-3.125h-3.201l-1.652-3.303a1.56 1.56 0 0 0-1.703-.833" clip-rule="evenodd"></path>
  <path fill="#000" fill-rule="evenodd" d="M18.668 23.336c.344.458.603 1.163.603 2.009s-.26 1.55-.603 2.008-.699.596-.96.596c-.26 0-.616-.138-.96-.596s-.602-1.163-.602-2.009.259-1.55.603-2.008.699-.596.96-.596c.26 0 .616.138.959.596m2.5-1.875c-.787-1.05-1.995-1.846-3.46-1.846s-2.672.796-3.46 1.846-1.227 2.428-1.227 3.884.44 2.834 1.228 3.883c.787 1.05 1.994 1.846 3.46 1.846 1.464 0 2.672-.796 3.459-1.846s1.228-2.428 1.228-3.884-.44-2.834-1.228-3.883M33.251 23.336c.344.458.603 1.163.603 2.009s-.259 1.55-.603 2.008-.698.596-.96.596c-.26 0-.615-.138-.959-.596s-.603-1.163-.603-2.009.26-1.55.603-2.008.699-.596.96-.596c.26 0 .616.138.96.596m2.5-1.875c-.787-1.05-1.994-1.846-3.46-1.846-1.464 0-2.671.796-3.459 1.846-.787 1.05-1.228 2.428-1.228 3.884s.44 2.834 1.228 3.883c.787 1.05 1.995 1.846 3.46 1.846s2.672-.796 3.46-1.846c.786-1.05 1.227-2.428 1.227-3.884s-.44-2.834-1.228-3.883" clip-rule="evenodd"></path>
</svg>
