 <svg  version="1.0" xmlns="http://www.w3.org/2000/svg"  width="300.000000pt" height="315.000000pt" viewBox="0 0 300.000000 315.000000"  preserveAspectRatio="xMidYMid meet">  <g transform="translate(0.000000,315.000000) scale(0.050000,-0.050000)" fill="#1204d7" stroke="none"> <path d="M540 6241 c0 -32 -13 -111 -30 -174 -30 -114 -40 -214 -16 -147 6 17 22 44 35 60 13 17 36 68 50 113 18 56 35 80 54 73 15 -6 27 0 27 12 0 12 -15 22 -32 22 -24 0 -30 13 -23 50 7 39 1 50 -28 50 -28 0 -37 -15 -37 -59z"/> <path d="M746 6232 c11 -68 -27 -145 -139 -285 -73 -91 -93 -156 -30 -100 20 18 42 28 49 21 6 -7 18 11 25 40 7 29 22 46 34 39 13 -8 15 -3 6 12 -9 15 7 47 41 83 30 32 49 58 40 58 -8 0 17 44 56 97 l71 98 -81 0 c-80 0 -82 -2 -72 -63z"/> <path d="M1080 6260 c0 -42 39 -53 71 -21 26 26 269 -36 269 -69 0 -26 42 -50 87 -50 49 0 26 81 -26 92 -28 6 -99 28 -158 49 -145 53 -243 52 -243 -1z"/> <path d="M1845 6260 c-1 -22 5 -40 14 -40 9 0 20 -27 25 -60 5 -33 0 -60 -11 -60 -11 0 -16 -4 -10 -9 20 -21 94 15 113 56 18 35 22 22 23 -75 0 -65 7 -113 15 -105 25 26 5 222 -25 239 -16 9 -29 34 -29 55 0 43 -31 53 -47 14 -8 -20 -10 -20 -11 0 -3 41 -53 28 -57 -15z"/> <path d="M2080 6280 c0 -11 10 -20 23 -20 16 0 19 -48 12 -163 -11 -161 -34 -208 -90 -187 -17 6 -25 -16 -25 -72 0 -56 7 -76 23 -66 16 10 20 1 12 -29 -9 -34 -2 -43 29 -43 31 0 38 -10 30 -40 -6 -22 -2 -35 8 -29 10 6 18 34 18 61 0 29 -9 45 -20 38 -25 -16 -25 31 0 70 17 26 19 25 20 -5 0 -19 10 -35 22 -35 14 0 17 20 9 55 -8 30 -8 48 0 40 9 -8 21 -48 28 -90 6 -41 12 62 11 230 l0 305 -55 0 c-30 0 -55 -9 -55 -20z"/> <path d="M2450 6280 c7 -12 21 -15 32 -9 10 7 18 5 16 -5 -9 -52 5 -126 24 -126 13 0 18 18 12 40 -7 26 0 40 17 40 16 0 23 -12 17 -28 -6 -15 -1 -34 11 -41 12 -8 16 -22 10 -32 -6 -11 -2 -19 10 -19 13 0 17 22 10 55 -7 31 -5 45 4 33 30 -39 104 -70 117 -48 19 31 -8 60 -56 61 -42 2 -43 2 -4 19 42 18 17 28 -63 26 -13 -1 -19 11 -13 26 8 21 -11 28 -73 28 -51 0 -79 -8 -71 -20z"/> <path d="M3037 6197 c5 -69 13 -93 25 -75 27 43 22 178 -7 178 -18 0 -23 -30 -18 -103z"/> <path d="M3260 6230 c0 -38 8 -70 18 -70 10 0 21 32 26 70 5 48 0 70 -18 70 -16 0 -26 -26 -26 -70z"/> <path d="M3991 6281 c-15 -24 8 -34 64 -30 26 2 45 -8 45 -24 0 -15 18 -27 40 -27 32 0 38 -9 29 -45 -10 -42 -5 -45 95 -45 l106 0 3 -73 c4 -101 45 -173 49 -87 1 33 2 66 1 73 -3 21 97 33 110 13 6 -11 1 -30 -11 -42 -12 -12 -22 -37 -22 -55 0 -18 -18 -49 -40 -69 -41 -37 -56 -82 -20 -60 11 7 20 -8 20 -34 0 -25 13 -86 29 -136 l28 -90 5 170 c5 212 5 214 23 232 8 8 15 90 15 181 l0 167 -70 0 c-53 0 -70 -8 -70 -35 1 -30 3 -31 20 -5 16 24 19 21 20 -15 0 -25 9 -45 20 -45 11 0 20 -13 20 -29 0 -38 -139 -36 -154 1 -6 16 -33 23 -71 18 -76 -10 -104 5 -76 39 17 20 10 23 -32 15 -37 -7 -49 -3 -39 13 8 13 23 19 33 12 10 -6 35 -2 54 9 29 17 22 21 -36 21 -39 1 -82 -10 -95 -23 -19 -19 -24 -19 -24 0 0 28 -52 32 -69 5z"/> <path d="M4291 6266 c-6 -18 -8 -36 -2 -41 14 -15 71 11 71 32 0 34 -56 41 -69 9z"/> <path d="M4700 5744 c0 -414 6 -565 25 -591 21 -28 24 -1 18 147 -5 122 0 180 15 180 23 0 29 -24 23 -85 -2 -19 9 -35 24 -35 23 0 28 46 25 235 -3 208 -7 234 -37 229 -24 -4 -33 9 -33 46 0 37 7 48 25 37 66 -42 72 -32 76 123 4 204 -19 270 -93 270 l-68 0 0 -556z m109 324 c13 -86 5 -129 -20 -104 -18 19 -27 196 -10 196 9 0 23 -41 30 -92z"/> <path d="M5044 6283 c-21 -13 -20 -22 5 -42 17 -14 31 -54 32 -88 0 -60 2 -61 30 -24 33 44 39 111 9 111 -11 0 -20 14 -20 30 0 33 -17 37 -56 13z"/> <path d="M5628 6250 c7 -29 4 -50 -8 -50 -11 0 -20 9 -20 20 0 11 -13 20 -30 20 -16 0 -30 -13 -30 -29 0 -18 -12 -25 -30 -18 -16 6 -30 1 -30 -11 0 -12 7 -21 15 -19 27 6 85 -27 75 -43 -14 -23 34 -56 90 -60 76 -7 84 -2 56 28 -14 15 -33 24 -41 19 -8 -5 -15 4 -15 20 0 16 11 34 25 40 19 8 19 14 -2 29 -20 14 -21 23 -4 33 17 11 17 21 0 43 -38 45 -65 33 -51 -22z"/> <path d="M5875 6253 c7 -37 18 -45 57 -38 73 14 65 85 -9 85 -49 0 -56 -7 -48 -47z"/> <path d="M902 6200 c-13 -45 -41 -92 -63 -105 -59 -37 -47 -68 26 -67 l65 2 3 125 c3 147 1 150 -31 45z"/> <path d="M5255 6224 c-53 -6 -74 -34 -37 -47 10 -4 20 -43 22 -87 5 -112 2 -134 -17 -122 -38 24 -6 -117 34 -150 48 -38 57 -78 18 -79 -14 0 -7 -10 15 -23 56 -31 55 -29 40 -74 -9 -30 -31 -43 -76 -44 l-64 -2 65 -21 c85 -27 88 -87 5 -105 -47 -10 -55 -18 -35 -38 40 -39 88 -51 113 -26 16 16 22 3 22 -52 0 -41 10 -74 22 -74 12 0 17 -14 11 -30 -10 -25 -5 -27 26 -10 62 33 68 60 23 102 -44 41 -50 89 -43 304 5 116 -46 247 -77 198 -20 -33 -60 1 -69 57 -8 56 24 119 62 119 22 0 29 14 23 53 -1 7 7 18 16 25 40 28 -42 132 -99 126z"/> <path d="M362 6182 c-21 -14 -18 -21 15 -31 51 -16 54 -37 13 -78 -23 -23 -25 -42 -10 -83 26 -67 26 -110 0 -70 -11 17 -20 22 -20 12 0 -10 -18 -2 -40 18 -61 55 -93 13 -51 -68 24 -47 29 -89 19 -165 -10 -75 -8 -99 9 -89 13 8 23 63 23 124 0 65 8 106 19 99 11 -7 18 -37 17 -67 -1 -30 5 -106 14 -169 13 -100 11 -115 -17 -115 -18 0 -33 8 -33 17 0 10 -22 13 -50 8 -89 -17 -36 -62 56 -47 25 4 39 -54 26 -108 -7 -28 -22 -50 -33 -50 -11 0 -14 22 -6 53 9 37 6 49 -10 39 -13 -8 -23 -27 -23 -43 0 -16 -16 -29 -34 -29 -31 0 -30 -5 8 -42 105 -105 159 84 179 627 10 285 5 305 -71 257z"/> <path d="M5960 6135 c-1 -32 -5 -37 -18 -18 -13 21 -19 20 -28 -5 -7 -17 0 -43 15 -58 15 -16 32 -54 36 -86 5 -32 10 3 12 77 2 74 -1 135 -7 135 -5 0 -10 -20 -10 -45z"/> <path d="M1120 6131 c0 -16 9 -34 20 -41 11 -7 20 -56 20 -109 0 -96 0 -97 -50 -74 -27 13 -50 32 -50 43 0 11 -26 22 -58 24 -48 3 -56 -2 -48 -35 7 -25 28 -39 59 -39 59 0 156 -85 141 -123 -8 -19 -11 -16 -12 8 -3 56 -39 40 -46 -20 -5 -44 -15 -54 -51 -49 -29 4 -45 -4 -45 -23 0 -19 13 -26 40 -19 49 13 53 -37 12 -136 l-28 -68 -9 60 c-9 59 -9 59 -12 6 -2 -35 -12 -51 -28 -45 -19 7 -24 -44 -21 -221 2 -135 -3 -227 -14 -220 -10 6 -14 -14 -10 -44 37 -234 37 -239 1 -196 -24 28 -37 33 -44 15 -6 -14 -19 -20 -29 -14 -34 21 -18 -56 17 -83 47 -36 60 -34 71 7 5 19 9 -19 9 -85 0 -102 -2 -109 -15 -50 -9 44 -16 54 -17 26 -4 -62 -29 -71 -122 -39 -69 24 -81 24 -81 1 0 -16 9 -28 20 -28 11 0 20 -13 20 -28 0 -15 14 -33 30 -39 17 -7 30 -3 30 8 0 30 92 22 119 -10 13 -16 18 -48 11 -70 -7 -24 -4 -41 9 -41 24 0 27 36 21 215 -3 119 -1 125 43 125 26 0 38 7 27 15 -53 39 -65 113 -68 410 -3 276 0 313 27 303 24 -10 31 -47 31 -174 0 -147 3 -160 31 -132 26 26 27 41 7 84 -19 43 -18 65 9 118 l32 66 1 -120 c0 -66 5 -138 11 -160 16 -67 -25 -109 -61 -61 -30 38 -30 38 -30 -1 0 -26 24 -52 67 -72 l66 -32 -9 160 c-7 123 -3 164 18 178 16 10 19 18 5 18 -28 0 -50 76 -26 91 10 6 7 33 -5 60 -17 37 -27 43 -39 25 -12 -20 -16 -18 -17 7 0 17 13 43 30 57 21 18 26 46 17 102 -11 69 -8 76 28 69 30 -6 39 3 37 36 -1 32 11 45 48 50 71 9 92 37 40 53 -29 9 -52 5 -63 -13 -14 -20 -17 -17 -13 13 3 22 15 47 26 57 13 10 11 20 -5 26 -45 18 -31 147 15 147 22 0 40 -8 40 -19 0 -10 25 -21 55 -25 38 -4 54 -17 52 -41 -2 -26 9 -33 45 -26 42 7 48 1 48 -52 0 -34 8 -54 20 -47 11 7 20 3 20 -9 0 -11 9 -21 20 -21 36 0 21 65 -31 133 -28 36 -57 66 -65 64 -41 -6 -64 6 -64 34 0 17 -9 26 -21 18 -11 -7 -33 -2 -48 10 -45 37 -211 46 -211 12z"/> <path d="M4945 6080 c2 -22 15 -40 29 -40 20 0 26 -60 26 -252 0 -206 5 -250 28 -242 15 6 37 1 48 -10 24 -24 84 -8 84 22 0 10 -25 24 -56 31 l-55 12 -6 195 c-7 263 -10 292 -33 309 -37 27 -68 15 -65 -25z"/> <path d="M3160 6078 c-102 -22 -112 -26 -322 -125 -420 -197 -873 -730 -997 -1173 -39 -138 -56 -512 -35 -780 3 -39 -5 -49 -36 -45 -160 19 -191 -225 -62 -494 49 -101 72 -183 82 -286 35 -377 148 -750 292 -960 l83 -122 -15 -232 c-9 -127 -14 -268 -12 -313 4 -89 -11 -107 -118 -147 -38 -15 -196 -88 -350 -162 -154 -74 -424 -196 -600 -270 -412 -174 -994 -458 -1039 -508 -54 -59 -26 -116 30 -60 28 28 54 37 83 28 25 -8 36 -6 28 7 -7 11 15 33 48 47 33 15 60 34 60 43 0 9 8 11 18 5 10 -6 22 -2 26 10 8 25 176 104 176 83 0 -8 -23 -40 -50 -72 -28 -32 -50 -66 -50 -76 0 -10 -61 -83 -135 -163 -151 -163 -244 -276 -245 -298 -1 -46 84 20 166 131 31 41 79 97 105 124 27 26 49 58 49 70 0 12 9 17 20 10 11 -7 20 3 20 22 0 80 246 355 337 378 27 7 72 30 99 52 69 54 82 29 20 -37 -28 -30 -113 -144 -189 -253 -133 -192 -166 -237 -303 -423 -57 -76 -61 -89 -29 -89 23 0 68 47 121 125 107 159 231 295 269 295 17 0 41 13 54 29 14 16 89 61 168 98 79 38 163 88 187 111 24 23 60 45 80 49 163 30 299 96 276 133 -10 16 -152 -24 -215 -60 -19 -11 -57 -20 -84 -20 -27 0 -54 -9 -61 -20 -7 -12 -20 -16 -28 -11 -9 5 -36 -9 -61 -33 -25 -23 -69 -43 -97 -44 -28 -1 -55 -15 -60 -30 -7 -20 1 -24 24 -15 21 8 29 5 21 -9 -7 -11 -26 -16 -41 -10 -26 10 -108 -51 -108 -79 0 -7 -14 -25 -30 -42 -27 -27 -30 -26 -30 2 0 17 9 31 20 31 11 0 20 16 20 35 0 20 18 47 41 61 22 14 49 48 60 76 10 28 27 45 38 39 10 -6 29 19 43 56 25 71 156 173 222 173 58 0 41 -34 -29 -60 -36 -13 -54 -28 -40 -34 14 -5 25 -23 25 -39 0 -21 24 -11 81 34 45 35 150 104 235 152 84 48 141 87 127 87 -14 0 -19 10 -12 21 7 12 26 17 41 11 16 -6 28 1 28 17 0 30 59 56 135 62 28 2 45 -8 45 -27 0 -17 -6 -25 -12 -18 -7 7 -26 -1 -42 -17 -16 -16 -46 -29 -67 -29 -22 0 -39 -9 -39 -20 0 -11 28 -18 63 -15 77 6 100 -37 33 -63 -79 -30 -112 -82 -52 -82 26 0 58 10 71 23 27 27 91 6 81 -26 -9 -25 74 -117 105 -117 10 0 17 -11 14 -25 -3 -14 9 -25 25 -25 17 0 39 -11 50 -25 67 -84 533 -160 832 -135 84 7 177 6 208 -2 l56 -14 -73 -65 c-41 -36 -72 -73 -70 -82 3 -10 -2 -38 -11 -64 -12 -35 -5 -56 27 -87 29 -26 39 -52 29 -73 -7 -18 -14 -48 -15 -67 -1 -18 -8 -29 -15 -25 -7 5 -25 -5 -38 -21 -14 -17 -38 -30 -54 -30 -16 0 -26 -11 -21 -25 10 -30 170 -39 188 -11 8 14 16 14 25 0 6 -11 29 2 49 30 38 50 38 50 -5 27 -23 -12 -42 -15 -43 -7 0 9 -13 -1 -29 -23 -16 -21 -35 -32 -43 -25 -7 7 -2 26 12 43 13 16 18 40 10 53 -9 14 -7 19 4 12 11 -6 35 15 54 47 20 32 44 59 56 59 11 0 1 -32 -24 -71 -52 -85 -46 -100 18 -47 26 21 41 38 34 38 -8 0 5 26 28 58 22 32 41 86 41 120 0 58 103 146 134 114 15 -14 112 38 145 76 14 18 32 27 41 22 9 -5 27 4 40 20 21 25 18 30 -13 32 -23 1 -14 8 22 19 100 30 97 24 -189 -353 -175 -231 -173 -228 -126 -215 37 10 139 135 222 271 26 42 54 76 63 76 9 0 22 20 28 45 32 124 275 306 383 287 42 -8 50 -2 50 41 0 55 41 107 85 107 40 0 75 -42 75 -89 0 -30 14 -42 50 -44 47 -3 50 3 50 95 0 74 -7 98 -30 98 -46 0 -35 46 21 86 31 23 66 32 94 24 99 -28 154 -56 143 -72 -6 -10 6 -24 26 -32 20 -7 52 -31 71 -53 38 -43 48 -103 13 -82 -13 9 -19 -7 -15 -44 8 -65 102 -95 123 -39 8 20 3 26 -17 19 -16 -6 -29 -3 -29 8 0 21 66 85 88 85 18 0 72 52 72 70 0 7 -10 6 -22 -1 -14 -9 -19 0 -15 23 4 21 32 49 62 64 33 15 60 48 67 80 6 30 19 78 28 108 10 31 9 56 -1 60 -10 3 -11 17 -2 31 11 18 52 13 174 -25 222 -69 223 -71 147 -152 -35 -37 -85 -102 -111 -143 -26 -41 -71 -113 -101 -160 -47 -74 -53 -102 -48 -221 4 -102 -1 -134 -20 -130 -19 4 -24 -16 -20 -71 4 -52 -2 -73 -16 -64 -33 20 -27 -60 6 -88 24 -19 27 -16 18 18 -6 23 -1 41 12 41 12 0 22 -17 22 -38 0 -24 19 -43 55 -52 127 -32 142 -31 156 12 17 56 -17 89 -50 49 -52 -62 -120 -32 -150 65 -11 35 -1 59 39 99 29 30 44 57 32 61 -31 10 -28 45 3 39 14 -3 26 17 28 45 2 28 4 61 5 75 4 46 182 32 182 -14 0 -21 -9 -44 -21 -51 -11 -7 -18 -42 -16 -77 2 -34 -3 -84 -11 -109 -11 -33 -6 -54 15 -70 16 -13 33 -46 37 -74 4 -27 18 -48 31 -45 30 6 33 -28 5 -45 -11 -7 -18 -43 -15 -80 7 -90 121 -98 184 -13 31 42 32 47 5 25 -37 -29 -59 -20 -66 29 -3 16 8 29 24 29 15 0 28 14 28 30 0 28 -12 32 -100 38 -16 1 -33 19 -37 39 -4 21 2 32 13 25 33 -20 184 -34 184 -17 0 22 -121 66 -143 53 -30 -19 -100 14 -90 42 6 15 -1 37 -15 48 -27 23 -20 135 10 153 26 16 22 129 -4 129 -16 0 -14 10 3 31 14 17 17 30 7 28 -71 -14 -168 4 -168 31 0 17 -9 30 -20 30 -11 0 -20 -9 -20 -20 0 -11 -13 -20 -29 -20 -24 0 -21 14 12 70 22 38 50 64 62 57 44 -27 159 -29 150 -3 -5 14 -21 27 -37 29 -15 1 -35 3 -43 5 -8 1 3 20 25 42 22 22 40 58 40 80 0 22 10 40 22 40 13 0 18 -18 12 -40 -6 -22 -2 -45 8 -51 10 -6 18 -2 18 8 0 20 77 54 105 47 8 -2 15 4 15 14 0 21 68 6 139 -31 28 -15 62 -27 76 -27 14 0 25 -9 25 -20 0 -11 16 -20 35 -20 80 -1 92 -32 42 -103 -26 -37 -49 -70 -51 -75 -3 -4 -29 8 -58 27 -29 19 -47 25 -39 12 13 -21 55 -49 232 -156 l71 -43 -1 162 -1 163 -200 88 c-110 48 -264 119 -343 156 -78 38 -191 82 -250 98 -564 154 -697 201 -697 248 0 29 -91 59 -145 49 -137 -26 -195 439 -81 660 29 57 82 199 118 314 49 160 73 211 101 216 105 16 130 30 152 80 13 29 48 92 79 138 31 46 56 88 56 94 0 6 45 86 99 179 l99 167 -12 145 c-16 191 -86 253 -195 170 -67 -50 -97 -38 -64 26 53 103 97 299 124 551 55 503 -277 1191 -718 1491 -386 262 -638 331 -953 261z m340 -197 c0 -21 -25 -58 -55 -82 -54 -43 -54 -44 -6 -29 61 19 104 60 85 82 -8 9 0 6 18 -7 37 -29 58 -14 58 40 0 21 9 32 21 24 12 -7 17 -25 12 -40 -7 -17 2 -24 26 -19 23 4 71 -24 122 -71 46 -43 114 -88 152 -100 37 -12 67 -34 67 -49 0 -14 27 -35 60 -47 33 -12 60 -29 60 -40 0 -10 18 -23 40 -29 29 -7 40 -27 40 -71 0 -64 -45 -71 -68 -11 -6 15 -34 28 -62 28 -29 0 -85 23 -126 50 -40 28 -99 50 -130 50 -31 0 -52 7 -47 15 5 8 -12 16 -39 18 -31 2 -43 -5 -34 -20 8 -13 -9 -7 -39 12 -33 21 -58 27 -65 14 -7 -11 -23 -14 -34 -6 -15 8 -10 22 13 39 19 14 29 35 21 48 -9 15 -21 16 -39 1 -13 -11 -30 -16 -36 -10 -6 6 -27 -10 -48 -35 -42 -51 -97 -72 -82 -32 40 106 39 108 -38 99 -57 -6 -66 -12 -40 -27 44 -24 42 -49 -7 -62 -29 -7 -40 0 -40 27 0 20 -9 42 -20 49 -11 7 -20 -4 -20 -24 -1 -31 -4 -31 -20 -6 -14 20 -25 23 -35 9 -46 -66 -90 -50 -80 28 l10 78 -56 -21 c-31 -12 -55 -27 -53 -33 10 -36 -74 -122 -90 -92 -10 17 -12 41 -5 53 8 13 2 31 -13 42 -22 15 -20 17 7 9 25 -9 35 -1 35 28 0 35 10 38 81 29 56 -7 77 -3 68 12 -9 15 0 18 27 9 28 -9 47 -2 61 23 11 20 25 34 32 31 32 -14 71 -2 71 23 0 20 32 28 120 29 105 2 120 -3 120 -36z m90 -439 c567 -121 782 -282 851 -637 13 -69 32 -125 42 -125 9 0 17 -27 17 -60 0 -33 8 -60 17 -60 154 0 146 -1081 -12 -1538 -62 -179 -92 -208 -101 -97 -4 50 2 75 19 75 18 0 19 6 3 22 -16 16 -9 42 27 94 43 63 45 74 16 89 -45 26 -89 3 -89 -44 0 -56 -12 -52 -118 33 -168 136 -277 276 -151 193 61 -40 121 -2 97 61 -14 36 -31 36 -170 1 -62 -15 -341 94 -406 159 -22 22 -54 43 -71 45 -206 31 21 300 232 276 103 -13 322 -89 370 -129 45 -38 44 -38 -50 2 -216 93 -439 88 -564 -11 l-56 -45 159 -34 c87 -19 195 -43 241 -53 63 -14 97 -11 140 11 71 37 162 37 227 0 28 -16 70 -29 95 -29 25 -1 45 -10 45 -21 0 -11 14 -20 31 -20 17 0 26 -9 19 -20 -7 -11 2 -20 19 -20 22 0 31 20 31 70 0 39 -7 70 -15 70 -8 0 -16 43 -16 96 -2 128 -26 192 -50 134 -13 -32 -16 -25 -18 34 0 40 -9 78 -18 84 -9 6 -9 -40 1 -102 19 -119 5 -156 -51 -134 -23 8 -30 26 -22 50 8 27 2 38 -21 38 -18 0 -29 14 -26 33 10 54 -35 52 -60 -2 -19 -43 -17 -54 21 -80 63 -44 10 -38 -69 7 -36 22 -141 59 -233 84 -169 46 -170 46 -308 -12 -59 -24 -19 50 73 137 83 78 103 86 285 106 95 11 195 -11 405 -89 50 -19 -38 107 -100 144 -119 71 -222 87 -420 69 -392 -37 -657 -14 -528 47 22 10 72 59 110 108 154 197 413 308 463 199 25 -55 109 -91 210 -91 l67 0 -75 67 c-112 100 -222 164 -345 198 -231 65 -241 64 -432 -34 -97 -50 -186 -91 -198 -91 -31 0 -156 -135 -220 -238 -60 -98 -61 -213 -3 -272 17 -17 26 -44 20 -61 -6 -16 0 -29 13 -29 16 0 20 17 12 50 -12 45 -7 50 51 50 34 0 111 24 170 54 104 53 107 53 177 20 39 -19 89 -34 111 -34 26 0 39 -14 39 -41 0 -36 -5 -38 -45 -17 -25 13 -38 16 -30 7 8 -8 -5 -26 -30 -39 -25 -13 -42 -35 -39 -49 6 -26 -53 -23 -176 7 -27 7 -37 7 -22 0 83 -39 102 -73 61 -109 -43 -37 -35 -88 15 -108 26 -10 27 -7 6 19 -34 41 3 85 72 85 46 0 51 -7 43 -57 -4 -32 -1 -58 9 -58 9 0 5 -20 -9 -45 -14 -25 -26 -48 -27 -51 -1 -3 -26 4 -56 15 -49 19 -51 17 -33 -17 15 -28 13 -54 -8 -93 -15 -30 -23 -66 -18 -80 8 -19 -9 -23 -66 -16 -179 23 -287 -1 -287 -62 0 -35 -100 -121 -174 -150 -86 -34 -110 -66 -110 -150 0 -39 -8 -71 -17 -71 -10 0 -13 -11 -8 -25 10 -27 -335 -29 -506 -4 -92 14 -103 2 -52 -54 42 -46 62 -47 73 -2 6 23 10 17 12 -16 1 -30 -27 -93 -65 -146 l-66 -94 -24 52 c-13 28 -23 63 -23 78 0 15 -8 31 -19 34 -10 4 -14 46 -7 93 8 62 19 83 39 76 17 -7 27 4 27 30 0 22 -7 36 -16 31 -8 -6 -17 12 -20 40 -2 27 -13 66 -24 87 -11 20 -21 76 -23 124 l-3 86 -12 -100 c-11 -88 -14 -75 -28 110 -8 121 -7 236 4 270 14 44 19 49 22 20 2 -35 5 -33 23 10 11 28 16 84 11 125 -5 42 -2 80 5 85 8 4 5 53 -6 107 -32 155 63 500 238 869 88 187 326 348 599 407 131 27 735 21 880 -11z m786 -156 c15 -14 24 -41 20 -59 -4 -26 -20 -16 -62 39 -55 73 -25 87 42 20z m-857 -505 c37 -24 3 -67 -80 -102 -74 -30 -90 -17 -55 44 43 77 80 93 135 58z m221 -21 c24 -16 21 -19 -16 -20 -25 0 -81 -18 -124 -40 -100 -51 -116 -50 -68 2 63 71 151 95 208 58z m-447 -148 c-46 -71 -41 -102 22 -149 63 -46 40 -97 -33 -74 -101 33 -132 238 -46 306 57 45 99 -18 57 -83z m169 -59 c-37 -37 -46 -39 -62 -13 -26 40 -16 65 28 72 20 3 41 11 48 18 7 7 17 2 21 -11 4 -13 -12 -42 -35 -66z m-396 -24 c-21 -15 -28 -41 -22 -75 6 -32 1 -50 -12 -48 -13 2 -23 -32 -24 -84 -1 -106 -76 -145 -100 -52 -16 63 6 151 35 145 12 -3 31 22 42 55 28 84 78 138 97 107 9 -14 2 -35 -16 -48z m670 -756 c7 -59 -18 -67 -109 -32 l-55 21 59 39 c73 48 97 41 105 -28z m315 -2 c38 -27 37 -29 -19 -50 -68 -26 -74 -23 -59 35 14 52 26 54 78 15z m779 -109 c-33 -20 -81 -57 -106 -82 -26 -24 -51 -40 -56 -34 -14 14 14 115 29 106 8 -5 36 4 63 19 82 45 144 37 70 -9z m-1233 -94 c4 -3 0 -17 -9 -31 -24 -38 -28 -115 -7 -128 11 -6 19 16 19 50 0 73 76 90 94 21 7 -26 27 -40 58 -40 35 0 44 -8 34 -33 -7 -19 -5 -28 7 -22 10 7 18 -12 18 -41 -1 -30 -8 -52 -16 -49 -8 3 -24 5 -35 5 -11 0 -20 17 -20 37 0 53 -21 65 -53 33 -96 -96 356 -315 678 -329 22 -1 18 -61 -4 -61 -11 0 -25 -32 -33 -71 -16 -88 -132 -99 -144 -14 -7 43 -64 66 -64 25 0 -11 -18 -20 -40 -20 -22 0 -40 -10 -40 -21 0 -12 -8 -16 -18 -10 -9 6 -29 -3 -42 -19 -17 -21 -18 -30 -2 -30 12 0 22 -22 22 -50 0 -27 -9 -50 -20 -50 -45 0 -15 -72 43 -106 58 -33 60 -37 27 -62 -27 -20 -30 -30 -11 -41 20 -13 20 -20 -2 -33 -48 -31 -60 -19 -46 44 9 43 5 68 -13 79 -39 24 -60 2 -36 -37 45 -73 -11 -195 -112 -242 -49 -23 -101 -60 -115 -82 -13 -22 -36 -40 -50 -40 -14 0 -25 -18 -25 -39 0 -34 11 -29 69 30 38 38 78 69 89 69 29 0 -103 -192 -165 -241 -29 -23 -53 -52 -53 -64 0 -11 16 -6 37 12 20 18 47 33 60 33 12 0 23 10 23 23 0 41 144 200 171 189 32 -12 77 38 60 67 -7 11 10 45 38 76 28 30 51 61 51 69 0 8 28 30 63 48 39 20 54 37 40 46 -16 10 -13 27 9 58 17 25 39 39 49 33 34 -21 20 8 -31 63 -51 55 -66 108 -30 108 11 0 20 -11 20 -25 1 -14 18 -2 40 25 27 35 40 41 41 20 2 -21 5 -22 12 -5 24 59 47 19 34 -60 -17 -113 -104 -280 -216 -415 -112 -136 -247 -310 -304 -393 -70 -102 21 -62 99 44 35 48 87 98 114 113 28 14 55 33 61 41 17 22 99 36 99 17 0 -28 -73 -83 -90 -67 -9 8 -11 5 -4 -7 13 -23 -121 -143 -229 -204 -37 -21 -100 -59 -141 -83 -41 -24 -91 -40 -110 -36 -29 7 -24 14 22 32 77 32 51 54 -30 25 -35 -12 -90 -22 -122 -22 -32 0 -83 -13 -113 -29 -73 -37 -432 -64 -451 -34 -8 13 -32 23 -53 23 -76 0 -252 100 -225 128 7 6 -3 12 -22 12 -19 0 -29 9 -22 20 7 11 -3 26 -23 34 -20 7 -38 3 -42 -10 -18 -54 -205 63 -205 127 0 30 -93 211 -116 228 -18 14 -84 116 -84 131 0 6 22 -4 50 -22 46 -30 51 -30 62 1 16 41 7 50 -58 55 -31 3 -62 23 -76 50 -14 25 -33 46 -43 46 -9 0 -12 8 -6 18 6 11 -1 31 -15 46 -48 47 -59 180 -14 156 62 -33 136 -23 220 30 101 64 106 63 131 -17 17 -55 16 -72 -8 -87 -19 -11 -25 -32 -16 -55 11 -29 19 -31 43 -11 23 19 60 8 192 -59 164 -82 207 -93 149 -35 -17 17 -31 41 -31 53 0 11 -16 22 -35 24 -19 1 10 9 65 17 93 14 311 8 363 -10 13 -4 19 -25 14 -47 -6 -21 -1 -44 11 -52 12 -7 26 10 34 38 12 48 19 51 147 51 190 0 264 -28 241 -91 -22 -56 4 -81 43 -43 37 35 163 43 152 10 -14 -42 -128 -99 -199 -99 -36 -1 -102 -10 -146 -22 -148 -38 -505 10 -697 95 -37 16 -37 15 -2 -26 20 -23 43 -38 50 -33 8 5 19 -9 24 -30 8 -28 2 -35 -21 -26 -21 8 -26 4 -15 -13 8 -13 30 -21 48 -17 18 4 66 -9 107 -29 41 -20 94 -36 118 -36 24 0 56 -16 70 -35 17 -23 27 -26 27 -9 1 19 21 22 74 12 52 -10 69 -7 59 9 -8 13 -7 24 2 24 9 1 70 3 136 6 134 4 192 26 147 55 -42 27 -57 21 -44 -17 9 -30 7 -30 -11 -5 -51 71 4 83 85 19 58 -46 57 -47 196 84 42 40 77 91 77 115 0 23 10 42 21 42 12 0 15 11 6 25 -9 14 -13 44 -10 68 3 24 -8 51 -24 60 -16 9 -33 40 -38 67 -9 48 -10 48 -12 -6 -3 -49 -9 -55 -48 -43 l-45 14 45 -49 c61 -66 57 -80 -20 -72 -36 3 -63 16 -61 29 9 47 -254 135 -414 140 -82 2 -191 10 -242 17 -79 12 -110 5 -214 -48 -123 -62 -244 -82 -244 -40 0 12 -13 17 -30 11 -16 -7 -30 -3 -30 8 0 10 -13 19 -29 19 -46 0 -63 85 -21 109 66 39 230 209 230 239 0 16 10 36 23 44 13 8 18 5 11 -6 -7 -11 20 -21 67 -23 43 -1 79 6 79 17 0 11 -11 20 -25 20 -17 1 -16 6 4 19 32 20 88 -2 151 -61 22 -21 67 -59 100 -86 33 -27 54 -54 47 -61 -7 -7 -25 -1 -40 15 -41 41 -71 20 -62 -44 10 -63 129 -116 207 -91 47 14 0 89 -55 89 -15 0 -27 10 -27 21 0 12 8 16 18 10 10 -6 23 2 29 18 6 16 0 32 -13 37 -67 25 105 53 262 43 96 -6 188 -10 204 -8 17 1 69 4 116 6 59 2 93 14 106 38 15 26 13 32 -9 23 -16 -6 -35 -2 -42 10 -7 11 -25 15 -41 9 -20 -7 -26 1 -21 30 6 28 0 37 -19 30 -16 -6 -32 9 -40 37 -19 62 -82 128 -148 155 -62 26 -81 128 -40 225 l23 56 72 -43 c40 -24 76 -46 80 -49z m-1819 -13 c-2 -72 -4 -77 -18 -35 -23 72 -23 120 0 120 11 0 19 -38 18 -85z m3043 -84 c50 31 -22 -179 -90 -261 -34 -42 -34 -17 2 140 5 23 -8 59 -31 83 l-40 43 64 50 64 50 6 -59 c4 -32 15 -53 25 -46z m-1678 4 c23 -14 69 -49 101 -77 33 -29 93 -63 135 -75 133 -40 247 -165 146 -162 -50 2 -300 55 -270 57 14 1 25 11 25 22 0 33 -65 23 -136 -21 -37 -22 -75 -35 -86 -28 -10 6 -30 -14 -43 -46 -24 -57 -83 -70 -62 -14 7 18 -12 42 -51 64 -34 19 -62 46 -62 60 0 31 0 31 -90 -6 -114 -48 -192 16 -88 72 30 16 39 16 29 1 -33 -54 119 44 191 123 44 47 77 44 64 -5 -9 -35 -1 -40 70 -40 85 0 130 31 75 52 -34 14 -42 48 -11 48 11 0 40 -11 63 -25z m857 -93 c-54 -16 -59 -46 -24 -155 18 -56 16 -61 -17 -52 -130 33 -114 227 17 223 64 -2 67 -4 24 -16z m127 -131 c18 -26 59 -64 93 -84 58 -34 79 -67 43 -67 -30 0 -203 149 -203 175 0 40 33 29 67 -24z m-20 -60 c20 -16 31 -38 24 -50 -30 -47 -120 -7 -100 46 16 40 28 40 76 4z m610 -114 c-26 -37 -56 -84 -68 -106 -11 -23 -36 -44 -55 -47 -49 -10 -47 89 2 105 21 6 63 38 94 71 73 76 89 62 27 -23z m-1217 33 c0 -32 -90 -43 -108 -13 -16 26 9 43 61 43 28 0 47 -12 47 -30z m-960 -51 c0 -12 -90 -59 -113 -59 -7 0 -1 13 12 28 18 23 16 30 -13 37 -20 5 -2 8 39 8 41 -1 75 -7 75 -14z m-325 -64 c43 -46 48 -83 17 -132 -25 -40 -54 13 -39 72 8 30 1 49 -21 57 -18 7 -32 20 -32 30 0 31 31 20 75 -27z m191 -14 c5 -22 -2 -50 -17 -62 -29 -24 -69 -10 -69 23 0 11 8 15 19 9 10 -6 24 -3 31 9 7 11 2 20 -10 20 -12 0 -17 9 -10 20 20 32 44 23 56 -19z m-287 -36 c-1 -31 -116 -166 -127 -149 -6 10 11 39 39 65 27 25 49 58 49 72 0 15 9 27 20 27 11 0 20 -7 19 -15z m2041 -1097 c0 -94 -44 -160 -52 -76 -1 10 -8 43 -17 73 -19 67 -3 115 38 115 24 0 31 -25 31 -112z m-1745 -54 c47 -33 85 -68 85 -77 0 -9 12 -11 26 -6 17 7 25 -8 25 -44 -1 -29 10 -57 22 -61 16 -5 20 7 12 35 -9 38 -5 42 37 30 186 -52 259 -101 227 -153 -6 -10 26 -18 71 -18 50 0 77 8 70 20 -7 11 -30 20 -51 20 -22 0 -39 9 -39 20 0 28 30 25 116 -12 41 -18 105 -36 143 -41 85 -11 113 -47 66 -84 -44 -34 61 -22 180 20 101 36 94 51 -20 49 -52 0 -111 5 -130 13 -37 14 -49 95 -15 95 11 0 20 -13 20 -28 0 -15 14 -33 31 -40 17 -6 27 -4 21 4 -5 9 -1 29 9 45 15 24 21 20 31 -16 7 -25 22 -45 32 -45 11 0 15 14 9 30 -9 22 2 30 38 30 28 0 72 14 99 32 41 27 150 54 150 37 0 -4 -14 -20 -31 -38 -18 -17 -22 -31 -10 -31 12 0 49 27 82 61 32 33 59 56 59 50 0 -6 17 5 39 24 21 19 50 44 65 55 14 11 52 41 84 65 68 53 84 55 100 14 7 -19 3 -26 -9 -18 -15 9 -17 -27 -8 -114 7 -70 15 -151 18 -180 4 -38 -5 -57 -32 -64 -24 -6 -33 -20 -25 -41 8 -21 1 -32 -20 -32 -18 0 -32 -13 -32 -30 0 -36 -58 -97 -111 -118 -28 -11 -32 -18 -12 -30 29 -18 -459 -187 -514 -178 -18 3 -46 -3 -61 -13 -111 -69 -893 -98 -852 -31 5 8 -22 12 -61 9 -38 -3 -69 3 -69 14 0 10 -11 17 -25 16 -134 -18 -211 129 -143 273 18 37 40 68 49 68 9 0 20 16 24 35 5 19 15 -16 24 -78 8 -62 9 -141 1 -175 -10 -49 -7 -62 18 -62 21 0 33 19 35 55 1 30 4 93 6 140 2 46 8 88 13 94 16 15 98 -12 98 -33 0 -10 -8 -13 -18 -7 -10 6 -24 -21 -31 -59 -7 -39 -23 -70 -35 -70 -12 0 -5 -19 16 -42 37 -41 37 -42 -1 -70 -38 -27 -38 -28 4 -28 47 0 59 26 76 170 6 54 20 105 31 111 25 16 -37 70 -133 117 l-77 37 -6 184 -5 184 64 -14 c36 -8 103 -41 150 -75z m1765 -176 c0 16 6 22 14 15 17 -17 29 -153 14 -153 -39 0 -88 49 -88 87 0 58 22 82 43 48 13 -19 16 -19 17 3z m300 -166 c0 -10 6 -13 13 -6 6 7 40 -2 73 -19 l61 -32 -94 -87 c-118 -110 -148 -115 -43 -8 42 43 73 83 68 88 -13 14 -178 -147 -178 -173 0 -37 -84 -115 -123 -115 -21 0 -37 -9 -37 -20 0 -11 -11 -20 -24 -20 -13 0 -46 -20 -73 -45 -27 -25 -42 -31 -33 -15 14 24 9 24 -22 -3 -60 -51 -161 -97 -179 -81 -8 8 -9 -3 -2 -24 12 -32 9 -34 -17 -12 -16 14 -30 16 -30 6 0 -22 -105 -55 -233 -76 -46 -7 -89 -26 -95 -41 -13 -35 -74 -39 -67 -4 8 37 -88 44 -109 7 -12 -22 -34 -28 -64 -21 -30 8 -50 2 -57 -16 -8 -20 5 -26 52 -21 42 4 30 -3 -37 -23 -115 -34 -210 -41 -140 -11 48 20 19 25 -47 7 -35 -9 -40 -17 -20 -29 21 -13 19 -17 -8 -18 -19 0 -35 7 -35 16 0 9 -70 8 -155 -3 -642 -80 -1188 284 -915 611 83 100 204 161 141 72 -17 -25 -31 -84 -31 -132 0 -493 1516 -368 2252 185 109 82 208 112 208 63z m276 -134 c5 -15 20 -55 35 -88 14 -33 22 -100 18 -150 -5 -49 -8 -110 -9 -134 -1 -50 -40 -86 -40 -37 0 21 -19 31 -60 31 -33 0 -60 10 -60 22 0 12 -13 17 -29 11 -17 -6 -35 -3 -41 6 -15 25 57 45 100 28 30 -11 32 -7 13 27 -13 24 -42 41 -69 41 -27 0 -81 11 -121 24 l-73 24 58 59 c33 32 75 58 94 58 19 0 29 5 23 12 -20 19 83 105 120 99 18 -2 37 -17 41 -33z m1203 -437 c23 -15 24 -23 2 -49 -14 -18 -21 -54 -16 -82 11 -59 10 -59 -66 -20 l-59 31 45 69 c49 76 52 78 94 51z m-2519 -221 c0 -23 13 -40 31 -40 23 0 18 -13 -19 -50 -28 -27 -67 -50 -89 -50 -21 0 -80 -19 -132 -42 -105 -46 -121 -42 -104 29 8 32 32 53 68 62 98 24 165 60 167 91 1 20 4 22 11 5 6 -14 20 -25 31 -25 11 0 15 14 9 30 -7 17 -3 30 8 30 10 0 19 -18 19 -40z m-190 1 c-14 -23 -169 -68 -184 -54 -5 5 34 23 87 39 53 17 100 31 103 32 4 1 1 -7 -6 -17z m-210 -302 c0 -8 15 -13 33 -12 18 2 36 -8 41 -21 6 -15 -11 -21 -48 -16 -31 4 -63 8 -71 9 -29 2 -15 54 15 54 17 0 30 -6 30 -14z"/> <path d="M2768 5345 c9 -8 35 -16 59 -17 170 -6 184 -9 146 -31 -35 -20 -35 -22 4 -59 49 -45 79 -51 43 -8 -13 16 -19 43 -13 59 6 16 3 35 -6 41 -29 17 -249 32 -233 15z"/> <path d="M2580 5250 c-14 -16 -37 -30 -51 -30 -15 0 -92 -95 -171 -212 -137 -201 -147 -211 -202 -200 -36 7 -53 4 -46 -8 7 -11 28 -21 46 -21 24 -1 21 -7 -12 -20 -59 -24 -25 -109 38 -93 21 6 43 2 49 -8 6 -10 33 -18 59 -18 88 0 86 -109 -5 -195 -26 -25 -36 -45 -23 -45 29 0 98 78 98 111 0 14 14 30 30 36 40 16 39 -45 -1 -103 -20 -28 -23 -44 -9 -44 26 0 179 160 179 189 1 10 14 1 30 -20 26 -36 29 -36 41 -5 10 26 23 30 52 15 21 -10 56 -28 78 -39 63 -32 100 -24 100 22 0 24 -16 46 -38 52 -21 5 -43 28 -49 51 -9 34 -16 37 -40 17 -17 -13 -32 -16 -36 -5 -12 34 -88 36 -82 3 3 -18 -10 -11 -35 17 -22 26 -40 37 -40 25 0 -12 -10 -22 -21 -22 -12 0 -15 10 -8 21 13 22 -44 99 -74 99 -34 0 -16 -44 23 -54 47 -12 48 -23 12 -71 -27 -36 -66 -44 -120 -23 -44 17 -40 53 8 88 22 16 40 43 41 59 1 69 46 94 148 87 117 -9 113 9 -7 30 l-83 14 65 70 c58 63 65 66 72 30 5 -22 24 -58 43 -80 20 -22 45 -58 58 -80 21 -39 22 -39 22 5 1 25 -9 45 -21 45 -16 0 -15 9 2 30 21 25 18 30 -15 30 -51 0 -72 50 -40 100 24 39 4 85 -21 49 -16 -22 -124 -28 -124 -6 0 8 29 37 64 64 36 28 60 56 53 62 -6 7 -23 -2 -37 -19z m-55 -177 c-49 -56 -176 -252 -207 -320 -14 -29 -37 -53 -52 -53 -61 0 -42 63 65 212 63 87 118 168 123 181 4 12 31 22 58 22 50 0 50 0 13 -42z"/> <path d="M3224 5260 c3 -18 -7 -28 -25 -25 -24 4 -33 -16 -36 -85 -3 -49 4 -90 15 -90 11 0 18 -18 17 -40 -2 -24 -18 -40 -39 -40 -20 0 -36 -10 -36 -22 0 -14 19 -18 49 -10 36 9 56 1 79 -32 17 -24 36 -38 42 -32 7 6 -1 24 -16 39 -37 37 -59 231 -32 282 16 28 15 46 -2 62 -17 17 -21 16 -16 -7z"/> <path d="M3535 5184 c22 -33 42 -42 73 -32 23 7 35 6 27 -3 -8 -8 5 -25 30 -38 25 -12 45 -35 45 -50 0 -15 14 -31 30 -36 21 -6 23 -3 6 9 -18 13 -13 24 18 44 36 23 40 22 30 -6 -9 -22 -1 -32 24 -32 31 0 35 -12 28 -80 -11 -95 8 -105 37 -20 21 60 77 84 77 32 0 -15 14 -33 30 -39 17 -7 30 -3 30 7 0 10 14 14 30 7 17 -6 30 -26 30 -44 1 -29 3 -29 20 -3 17 26 19 25 20 -5 0 -19 8 -35 18 -35 30 0 43 61 22 100 -11 21 -20 66 -20 102 0 62 -17 71 -28 15 -22 -107 -97 -132 -136 -46 -13 27 -33 47 -44 43 -12 -4 -34 5 -48 19 -15 15 -44 27 -65 27 -46 0 -52 36 -9 53 16 6 25 19 19 28 -18 30 -65 -2 -78 -52 -6 -27 -20 -49 -30 -49 -20 0 -52 79 -44 108 3 9 -14 12 -36 6 -23 -5 -41 -3 -41 6 0 9 -21 14 -47 13 -45 -3 -46 -6 -18 -49z"/> <path d="M2846 5034 c-9 -15 -38 -42 -65 -60 -70 -48 -25 -42 55 6 36 23 61 49 54 60 -16 26 -25 25 -44 -6z"/> <path d="M2934 4876 c-18 -12 -18 -15 1 -16 16 0 25 -29 25 -76 0 -78 58 -194 59 -119 1 20 -9 52 -22 72 -17 27 -17 47 0 75 20 34 22 34 22 3 1 -19 10 -35 21 -35 11 0 20 14 20 30 0 40 20 38 52 -5 15 -19 27 -25 27 -13 2 69 -138 127 -205 84z"/> <path d="M4040 4841 c0 -12 10 -21 23 -21 27 0 117 -94 117 -123 0 -11 10 -17 22 -13 11 4 20 14 20 22 -1 7 -2 45 -2 83 0 65 -2 68 -57 52 -32 -9 -71 -8 -90 2 -21 13 -33 12 -33 -2z"/> <path d="M4200 4542 c0 -9 -19 -14 -43 -14 -24 1 -47 -11 -53 -26 -5 -16 0 -22 12 -14 12 7 26 5 31 -4 6 -9 36 -15 67 -15 64 1 83 73 21 82 -19 3 -35 -1 -35 -9z"/> <path d="M2140 4499 c0 -43 3 -44 48 -27 45 17 40 59 -8 63 -27 2 -40 -10 -40 -36z"/> <path d="M3983 4508 c-15 -17 -45 -27 -65 -22 -38 10 -53 -15 -20 -34 22 -14 142 45 142 69 0 28 -26 22 -57 -13z"/> <path d="M4400 4411 c0 -38 -10 -51 -40 -51 -38 0 -7 -119 42 -160 7 -5 17 -23 23 -40 6 -16 11 40 11 125 0 85 -8 160 -18 166 -10 6 -18 -12 -18 -40z"/> <path d="M2154 4326 c-63 -10 -194 -131 -194 -180 0 -29 3 -29 37 1 20 18 51 33 68 33 18 0 39 10 47 23 16 27 300 8 337 -22 13 -11 44 -14 70 -7 31 8 43 5 34 -9 -14 -22 85 -105 125 -105 12 0 22 -11 22 -25 0 -19 -62 -25 -245 -25 -219 0 -253 -5 -317 -45 -110 -68 -134 -61 -126 40 l6 85 -22 -65 c-12 -36 -29 -65 -38 -65 -9 0 -12 -13 -5 -30 6 -16 1 -30 -11 -30 -12 0 -22 -9 -22 -20 0 -11 31 -20 70 -20 38 0 127 -22 199 -49 169 -64 427 -74 539 -21 48 23 66 41 51 51 -35 21 -4 60 35 45 24 -10 30 -5 21 19 -7 18 -2 38 11 44 13 6 4 8 -21 3 -25 -4 -45 -4 -45 2 0 5 20 27 45 47 42 36 18 96 -27 68 -8 -5 -19 4 -25 21 -6 16 1 36 15 44 98 57 -61 155 -283 173 -80 7 -179 16 -220 21 -41 4 -100 4 -131 -2z m424 -367 c114 -51 98 -66 -29 -27 -116 36 -297 25 -395 -24 -54 -27 -59 -27 -34 -2 88 89 320 116 458 53z m-258 -95 c0 -20 11 -47 24 -60 33 -33 6 -30 -65 7 -59 30 -71 50 -46 76 28 28 87 12 87 -23z m358 -22 l68 -36 -98 -11 c-115 -13 -110 -15 -95 41 14 53 35 54 125 6z"/> <path d="M2901 4001 c-17 -10 -23 -25 -16 -33 8 -8 6 -25 -6 -39 -14 -17 -9 -27 17 -34 31 -8 38 2 40 58 2 37 1 67 -2 67 -2 0 -17 -9 -33 -19z"/> <path d="M2850 3817 c-38 -84 -454 -297 -580 -297 -25 0 -51 -14 -58 -32 -17 -45 -16 -48 19 -48 17 0 26 9 19 20 -7 11 2 20 19 20 26 0 27 -6 6 -41 -15 -24 -39 -37 -60 -32 -19 5 -35 1 -35 -9 0 -31 95 -20 130 15 29 28 44 30 98 10 102 -36 132 -30 132 29 0 65 98 160 185 179 36 8 83 27 106 42 23 15 48 21 56 14 7 -8 13 -3 13 10 0 13 10 23 21 23 12 0 16 -9 9 -20 -7 -11 -4 -20 7 -20 23 0 49 95 32 121 -6 11 -21 14 -32 7 -11 -6 -30 3 -43 20 -22 30 -26 28 -44 -11z"/> <path d="M2189 3738 c-6 -10 -6 -27 1 -38 7 -11 -4 -20 -25 -20 -20 0 -47 -10 -60 -23 -17 -17 -35 -15 -73 10 -76 50 -88 41 -77 -57 6 -51 2 -90 -9 -90 -36 0 -31 -194 6 -208 29 -11 32 -1 23 76 -10 94 13 123 88 114 19 -2 39 6 46 17 8 12 3 21 -9 21 -28 0 -110 76 -96 90 6 6 35 2 64 -9 35 -14 50 -14 42 -1 -14 23 -12 23 180 23 106 1 123 4 70 15 -38 7 -68 22 -67 33 5 27 -90 70 -104 47z"/> <path d="M3040 3716 c-47 -51 -51 -76 -12 -76 15 0 57 -5 95 -11 l67 -12 -55 36 c-64 42 -69 61 -20 71 33 7 33 8 0 21 -23 9 -49 -1 -75 -29z"/> <path d="M2515 3723 c-33 -13 -33 -15 0 -35 39 -25 125 -3 125 31 0 23 -71 26 -125 4z"/> <path d="M4060 3640 c-16 -11 -61 -21 -100 -22 -40 -2 -54 -7 -32 -12 30 -8 32 -14 10 -28 -23 -14 -22 -17 5 -18 19 0 47 -5 63 -11 17 -7 48 8 72 33 63 68 52 103 -18 58z"/> <path d="M4527 3530 c-6 -16 -26 -30 -44 -30 -27 -1 -28 -4 -5 -18 26 -17 21 -103 -12 -198 -10 -28 -7 -29 15 -9 29 27 28 25 55 180 18 103 14 134 -9 75z"/> <path d="M2479 3271 c14 -16 19 -39 12 -50 -8 -12 -5 -21 6 -21 24 0 47 58 32 82 -6 10 -25 18 -43 18 -25 0 -26 -6 -7 -29z"/> <path d="M3302 2907 c-23 -27 -23 -34 0 -49 39 -25 68 -11 68 32 0 48 -33 56 -68 17z"/> <path d="M3392 2863 c-11 -18 156 -143 192 -143 31 0 -28 72 -91 110 -88 54 -88 54 -101 33z"/> <path d="M2184 2549 c-31 -35 -12 -76 28 -61 21 8 28 -10 28 -76 0 -82 77 -223 82 -150 1 15 8 6 15 -20 14 -47 15 -48 52 -10 37 37 38 37 25 1 -12 -32 -7 -36 31 -26 25 7 61 13 81 13 30 0 27 8 -18 50 -30 28 -66 50 -81 50 -15 0 -27 8 -27 17 0 10 -20 14 -45 9 -40 -8 -46 0 -51 75 -9 142 -60 196 -120 128z"/> <path d="M3365 2520 c-32 -50 -32 -86 -1 -75 25 8 62 115 39 115 -7 0 -25 -18 -38 -40z"/> <path d="M2620 2269 c0 -29 75 -42 106 -19 32 23 29 26 -35 26 -39 0 -71 -3 -71 -7z"/> <path d="M3043 2109 c7 -36 25 -48 123 -87 34 -13 51 -31 42 -45 -9 -15 -19 -12 -32 11 -20 36 -56 25 -56 -17 0 -34 80 -55 91 -24 5 12 32 24 61 26 56 3 82 20 62 40 -7 7 -27 1 -43 -12 -35 -29 -75 44 -55 99 10 26 7 26 -22 3 -19 -16 -34 -21 -34 -13 0 8 -13 4 -29 -9 -22 -19 -37 -15 -71 19 -37 37 -43 38 -37 9z"/> <path d="M2882 1975 c-67 -106 -31 -174 57 -107 23 18 26 15 15 -13 -7 -19 -4 -35 7 -35 10 0 19 23 19 50 0 28 -9 50 -20 50 -11 0 -20 17 -20 39 0 57 -28 65 -58 16z"/> <path d="M3585 1605 c-19 -51 -62 -89 -85 -75 -11 7 -15 -1 -8 -17 18 -49 114 13 117 76 3 60 -5 65 -24 16z"/> <path d="M3800 1502 c0 -29 -13 -42 -41 -42 -23 0 -55 -13 -72 -30 -16 -16 -67 -31 -113 -32 -46 0 -120 -13 -164 -28 l-80 -27 85 9 c47 4 121 13 165 18 47 6 80 2 80 -10 0 -11 -18 -20 -40 -20 -22 0 -40 -10 -40 -21 0 -12 8 -16 19 -10 10 6 24 3 31 -9 7 -11 30 -20 51 -20 45 0 53 58 14 97 -14 14 -16 23 -5 20 39 -11 172 68 166 99 -9 48 -56 53 -56 6z"/> <path d="M2535 1451 c-132 -96 469 -234 675 -155 125 47 120 56 -21 35 -71 -10 -129 -26 -129 -35 0 -31 -126 -16 -154 19 -20 24 -32 28 -38 11 -8 -18 -32 -17 -100 4 -108 32 -193 85 -178 109 19 31 -19 39 -55 12z"/> <path d="M3020 1400 c0 -11 38 -19 85 -18 72 2 77 4 35 18 -72 23 -120 23 -120 0z"/> <path d="M2494 1332 c24 -18 73 -37 110 -43 l66 -11 -61 28 c-34 16 -84 35 -110 43 l-49 15 44 -32z"/> <path d="M3803 1329 c-53 -23 -63 -35 -46 -56 13 -15 17 -33 9 -40 -36 -37 32 -5 79 37 93 82 73 109 -42 59z"/> <path d="M2560 1240 c-34 -21 20 -53 85 -50 50 2 64 -12 57 -55 -4 -26 34 -16 66 16 18 17 42 25 54 18 12 -8 63 -13 114 -12 50 1 102 -7 116 -19 17 -13 29 -13 37 1 8 12 3 21 -10 21 -18 0 -17 8 1 30 35 42 13 58 -41 29 -45 -24 -177 -18 -363 17 -52 9 -104 11 -116 4z"/> <path d="M3300 1206 c-47 -24 -48 -25 -7 -26 54 0 107 19 107 39 0 22 -44 16 -100 -13z"/> <path d="M2460 1174 c0 -19 -11 -52 -24 -73 -29 -47 -24 -54 54 -70 54 -11 56 -10 16 11 -36 19 -40 31 -24 74 13 33 13 57 -1 71 -15 15 -21 10 -21 -13z"/> <path d="M1780 6015 c0 -14 -6 -45 -12 -69 -11 -41 -7 -43 60 -32 74 12 80 4 54 -64 -21 -53 -155 -44 -206 15 l-36 41 0 -43 c0 -24 12 -43 27 -43 15 0 42 -17 61 -38 19 -21 57 -44 83 -51 52 -12 66 -61 24 -77 -37 -13 9 -56 67 -62 27 -3 68 -12 93 -20 65 -21 56 19 -13 60 -45 27 -58 49 -60 106 -4 151 -19 226 -53 263 -40 44 -89 52 -89 14z"/> <path d="M5383 5997 c-47 -17 -42 -57 8 -57 16 0 29 -12 29 -26 0 -15 13 -44 29 -65 26 -36 28 -33 25 41 -5 100 -30 130 -91 107z"/> <path d="M5673 6007 c-7 -8 -47 -17 -87 -21 -96 -10 -102 -18 -49 -63 46 -41 41 -96 -10 -107 -24 -5 -21 -15 13 -52 50 -53 40 -104 -19 -104 -50 0 -54 -36 -6 -55 19 -7 44 -22 56 -33 25 -23 13 -137 -13 -121 -10 6 -28 5 -40 -2 -16 -10 -14 -19 5 -31 48 -31 77 -19 77 32 0 28 8 50 19 50 39 0 81 -66 81 -127 0 -43 14 -72 42 -89 23 -15 37 -39 31 -54 -6 -15 11 -41 39 -59 l49 -32 -4 102 c-2 62 -14 107 -29 113 -18 7 -21 23 -8 56 12 33 11 50 -6 56 -13 5 1 16 31 24 57 15 70 56 35 110 -14 22 -19 23 -20 4 0 -15 -9 -21 -20 -14 -10 6 -47 -8 -80 -33 l-61 -45 -44 44 c-24 24 -34 44 -23 44 14 0 18 56 12 163 -7 118 -3 159 13 149 13 -8 24 -3 24 12 1 14 9 9 17 -13 14 -35 16 -35 28 -4 8 21 2 39 -15 45 -16 6 -24 24 -18 40 12 30 2 37 -20 15z"/> <path d="M757 5940 c-12 -33 -28 -56 -37 -50 -8 5 -28 -6 -43 -25 -24 -32 -24 -32 8 -8 19 16 35 22 35 15 0 -35 -151 -272 -174 -272 -32 0 -72 75 -58 112 6 15 2 28 -9 28 -10 0 -19 -32 -19 -71 0 -43 -8 -66 -20 -59 -11 7 -20 -1 -20 -17 0 -22 17 -27 65 -20 53 8 60 5 40 -15 -14 -14 -25 -43 -25 -63 0 -28 -10 -35 -38 -26 -48 16 -73 -174 -45 -349 10 -60 19 -90 21 -67 1 24 13 48 27 54 20 8 20 10 0 11 -14 1 -25 13 -25 25 0 13 5 18 12 12 6 -6 37 -4 70 5 32 10 58 11 58 3 0 -7 39 -10 87 -6 48 3 120 -3 160 -14 l73 -20 2 304 c3 458 3 455 -65 518 l-59 55 -21 -60z m91 -82 c24 -123 14 -594 -13 -591 -14 2 -25 -6 -25 -17 0 -11 11 -19 25 -17 14 1 25 -5 25 -15 0 -10 -22 -18 -50 -18 -27 0 -50 9 -50 20 0 11 -14 20 -31 20 -19 0 -26 9 -17 23 9 15 5 18 -10 8 -14 -8 -20 -28 -14 -43 13 -33 -7 -35 -80 -7 -41 15 -59 14 -71 -5 -11 -18 -17 -10 -19 24 -2 44 -4 45 -15 10 -7 -22 -24 -42 -37 -45 -19 -3 -20 9 -5 49 15 38 14 57 -3 67 -31 20 -8 79 31 79 17 0 47 -16 67 -36 43 -43 91 -31 101 24 4 27 -3 34 -25 25 -18 -6 -32 -3 -32 8 0 10 -18 19 -40 19 -53 0 -51 41 5 101 42 45 45 46 51 8 14 -84 24 -101 45 -68 17 25 21 25 39 -1 17 -26 19 -25 20 5 0 19 -18 53 -40 75 -50 50 -50 76 0 140 22 28 39 59 40 70 0 32 77 150 97 150 10 0 24 -28 31 -62z"/> <path d="M773 5728 c-30 -63 -31 -71 -4 -61 25 9 31 -5 33 -73 l2 -84 17 70 c10 43 8 79 -5 95 -11 13 -15 47 -8 75 18 70 5 62 -35 -22z"/> <path d="M5780 5922 c0 -21 -14 -43 -31 -50 -37 -14 -20 -52 22 -52 18 0 29 20 29 51 l0 51 70 -53 70 -54 0 52 c0 55 -48 93 -119 93 -27 0 -41 -13 -41 -38z"/> <path d="M5957 5805 c-5 -19 -2 -71 5 -115 11 -75 13 -72 15 35 3 114 -5 147 -20 80z"/> <path d="M1629 5628 c41 -101 49 -156 28 -181 -20 -25 10 -38 68 -29 8 1 16 -18 16 -43 l2 -45 17 43 c18 45 16 238 -2 256 -37 36 -144 36 -129 -1z"/> <path d="M140 5523 c0 -9 6 -22 13 -30 29 -29 28 -159 -2 -205 -40 -60 -41 -101 -2 -62 32 32 62 129 54 171 -3 15 3 21 14 15 11 -7 26 -3 33 8 7 11 -2 26 -19 32 -17 7 -31 29 -31 50 0 21 -13 38 -30 38 -16 0 -30 -7 -30 -17z"/> <path d="M1540 5382 c0 -32 -11 -62 -23 -66 -26 -9 34 -134 78 -162 14 -9 25 -27 25 -41 0 -15 28 -26 69 -27 51 -1 65 5 57 26 -5 15 -21 28 -35 28 -14 0 -45 17 -69 38 l-45 39 47 9 46 9 -45 2 c-33 2 -46 16 -47 53 -2 28 -5 59 -8 70 -3 11 -6 34 -7 50 -5 56 -43 30 -43 -28z"/> <path d="M5960 5404 c0 -20 -9 -45 -21 -57 -14 -14 -11 -29 10 -46 27 -23 31 -15 31 57 0 45 -4 82 -10 82 -5 0 -10 -16 -10 -36z"/> <path d="M5154 5353 c-6 -17 1 -35 17 -41 48 -18 36 -430 -12 -418 -19 5 -41 0 -48 -12 -13 -21 12 -30 64 -23 38 4 30 -35 -10 -45 -33 -9 -33 -9 0 -12 19 -1 35 -15 35 -31 0 -18 -12 -25 -30 -18 -40 15 -21 -96 32 -189 21 -37 38 -84 38 -105 0 -22 8 -39 18 -39 30 0 44 -64 20 -92 -12 -15 -18 -50 -13 -78 13 -71 -34 -64 -78 10 -34 58 -107 84 -107 38 0 -12 12 -18 28 -12 15 6 26 0 25 -13 -1 -12 6 -66 15 -118 12 -68 9 -104 -8 -125 -17 -21 -18 -30 -2 -30 12 0 22 -19 22 -43 0 -39 89 -137 125 -137 8 0 15 -16 15 -35 1 -30 3 -31 21 -5 22 32 19 -8 -11 -165 -14 -73 -13 -75 33 -58 26 10 56 20 67 23 45 11 100 60 67 60 -18 0 -37 18 -43 40 -6 22 -25 40 -42 40 -24 0 -32 20 -32 80 0 81 -41 114 -121 96 -17 -3 -26 6 -22 24 4 17 10 80 13 140 6 123 25 131 100 45 42 -50 33 -101 -14 -72 -9 5 -16 -9 -16 -32 0 -22 7 -42 15 -44 8 -1 35 -4 60 -7 25 -2 64 -21 86 -41 21 -19 45 -30 52 -23 13 13 121 -37 158 -74 47 -47 32 -170 -22 -184 -27 -7 -49 -26 -49 -43 0 -20 -13 -26 -40 -19 -64 17 -48 -39 18 -62 32 -12 64 -15 70 -9 7 6 12 -35 12 -92 0 -56 9 -103 20 -103 11 0 20 10 20 22 0 15 8 16 25 4 14 -11 48 -13 75 -6 l50 14 -52 25 c-52 25 -128 149 -109 179 5 8 14 46 21 84 20 118 70 203 70 118 0 -11 14 -20 31 -20 17 0 25 -10 18 -21 -36 -59 81 -119 123 -64 43 56 36 90 -12 61 -31 -20 -44 -20 -64 0 -19 19 -15 24 21 24 38 0 41 6 23 40 -12 22 -38 40 -59 40 -75 0 -101 25 -114 106 -12 70 -16 75 -30 38 -16 -44 -77 -62 -77 -24 0 11 -23 20 -51 20 -68 0 -150 55 -135 92 7 18 0 27 -17 24 -19 -4 -29 20 -33 79 -4 47 -14 81 -24 75 -21 -13 -39 41 -39 120 0 169 2 173 70 121 27 -21 31 -30 11 -30 -16 -1 -23 -7 -16 -14 18 -18 74 32 74 67 0 15 -9 23 -20 16 -11 -7 -20 -2 -20 10 0 13 -15 38 -34 56 -32 32 -33 32 -21 -1 22 -58 -33 -41 -115 34 l-75 69 52 13 c64 16 66 29 12 75 -31 27 -36 43 -20 73 12 21 21 88 21 149 0 60 9 115 19 121 11 7 14 26 8 42 -6 16 0 43 14 60 13 16 19 36 12 42 -6 7 -18 -2 -25 -20 -21 -56 -48 -37 -48 34 0 76 -66 158 -86 106z"/> <path d="M4925 5315 c13 -38 75 -43 75 -6 0 18 -17 31 -42 31 -24 0 -38 -10 -33 -25z"/> <path d="M200 5202 c0 -21 -10 -42 -22 -46 -27 -9 -27 -358 0 -375 11 -6 22 -72 25 -146 4 -78 15 -135 27 -135 15 0 17 48 8 145 -7 80 -10 149 -6 153 4 5 0 18 -10 30 -68 87 -31 220 39 137 33 -40 33 -1362 -1 -1425 -11 -20 -11 -41 0 -52 10 -10 20 -230 21 -488 1 -274 10 -479 21 -493 47 -56 13 -948 -40 -1047 -38 -73 -49 -128 -55 -288 -5 -109 -13 -205 -18 -214 -5 -8 -2 -20 8 -26 9 -6 28 9 41 34 35 65 114 97 174 70 69 -32 87 0 27 51 -50 42 -61 133 -16 133 10 0 13 -10 5 -23 -10 -16 -1 -20 28 -12 23 6 47 0 53 -12 8 -17 14 -16 23 2 6 14 24 25 40 25 29 0 37 24 15 46 -7 8 -25 4 -39 -8 -20 -17 -38 -8 -75 34 -49 57 -133 41 -100 -19 10 -17 6 -17 -12 0 -20 18 -19 32 1 70 16 30 23 107 20 210 -5 180 5 197 96 165 58 -20 86 -58 43 -58 -42 0 -101 -86 -78 -113 12 -15 16 -40 10 -57 -7 -16 -3 -30 8 -30 10 0 19 23 19 50 0 28 8 50 18 50 10 0 23 23 30 50 12 48 67 68 99 36 21 -21 73 -25 73 -5 0 9 -31 23 -70 30 -38 8 -70 19 -70 26 0 13 -116 71 -143 72 -28 2 -33 25 -47 208 -11 148 -9 192 13 207 21 15 21 21 2 29 -18 8 -25 87 -25 300 0 163 -9 307 -21 329 -17 31 -31 537 -20 708 9 137 59 -47 53 -193 -4 -94 1 -157 13 -157 10 0 14 -13 8 -30 -7 -16 -4 -50 5 -75 11 -31 8 -51 -13 -66 -47 -35 -8 -197 51 -205 46 -7 66 60 25 86 -11 6 -19 45 -18 86 2 41 1 163 -2 271 -4 223 -3 227 56 176 45 -39 70 -622 26 -595 -10 6 -18 -31 -19 -83 0 -52 4 -84 10 -70 5 14 21 25 36 25 15 0 31 -11 36 -25 17 -48 27 -4 19 80 -6 50 -17 80 -29 72 -13 -7 -15 5 -6 35 19 62 19 62 1 104 -23 52 7 71 41 25 17 -23 28 -28 28 -12 0 16 15 22 40 15 27 -7 40 0 40 19 0 16 -9 24 -20 17 -25 -15 -133 83 -113 103 27 27 249 20 238 -8 -5 -14 -16 -25 -24 -25 -15 0 6 -132 39 -250 12 -40 15 5 11 139 -4 126 -14 202 -29 207 -12 4 -17 18 -10 31 6 13 -6 1 -28 -25 l-39 -49 -23 42 c-12 23 -22 78 -22 121 0 196 -25 380 -49 358 -17 -15 -19 -48 -8 -103 32 -169 21 -365 -22 -376 -48 -13 -67 4 -40 36 45 55 -2 189 -86 246 -44 29 -101 67 -127 84 -34 23 -41 38 -25 54 15 15 15 50 0 122 -28 127 -28 847 0 951 24 94 4 262 -36 303 -26 25 -26 29 -1 29 70 0 78 189 9 207 -81 22 -115 15 -115 -25z m90 -6 c77 -35 62 -118 -25 -143 -74 -21 -102 -7 -68 34 13 15 25 51 27 80 3 29 7 53 9 53 3 0 28 -11 57 -24z m28 -3811 c-31 -181 -99 -314 -98 -192 1 31 4 32 20 7 14 -22 19 -1 20 74 0 57 9 109 20 116 11 7 20 30 20 51 0 22 8 39 17 39 9 0 10 -43 1 -95z"/> <path d="M5445 5181 c2 -22 17 -41 34 -41 27 -1 27 -3 1 -20 -20 -13 -22 -19 -5 -20 14 0 25 -21 25 -48 0 -31 14 -51 40 -58 24 -6 40 -27 40 -52 0 -29 -13 -42 -40 -42 -41 0 -55 -48 -20 -70 34 -21 22 -71 -25 -113 -29 -26 -34 -37 -13 -30 32 10 98 -49 98 -88 0 -12 9 -16 19 -10 11 7 37 1 59 -12 32 -20 50 -20 92 3 42 22 60 23 91 4 21 -13 57 -24 79 -24 22 0 40 -13 40 -30 0 -23 -13 -27 -53 -18 l-53 14 37 -63 c21 -35 45 -63 53 -63 9 0 16 -18 16 -40 0 -22 -9 -40 -20 -40 -11 0 -20 -10 -20 -21 0 -12 9 -16 20 -9 11 7 22 -8 24 -34 1 -25 8 40 15 144 14 221 18 205 -53 204 -85 -3 -221 60 -173 79 33 13 32 14 -7 16 -33 1 -42 10 -33 36 8 26 6 28 -8 9 -12 -17 -38 -22 -71 -13 -63 16 -57 180 11 272 65 88 7 174 -139 206 -56 12 -63 9 -61 -28z"/> <path d="M1247 5129 c7 -18 13 -39 13 -47 0 -8 27 -12 60 -10 57 4 60 0 60 -75 0 -50 8 -75 21 -66 12 7 18 41 15 76 -5 53 1 63 39 65 25 1 45 -4 45 -12 0 -8 23 -10 50 -5 116 22 17 67 -208 94 -94 11 -106 9 -95 -20z"/> <path d="M5900 5134 c0 -14 18 -27 40 -29 23 -1 40 10 40 26 0 16 -18 29 -40 29 -22 0 -40 -12 -40 -26z"/> <path d="M383 5016 c-2 -63 7 -161 19 -219 19 -87 18 -108 -7 -126 -31 -22 -27 -140 7 -182 9 -11 18 -54 21 -95 3 -45 15 -74 31 -74 31 0 36 112 6 130 -11 7 -19 50 -18 96 2 46 7 66 13 44 10 -40 10 -40 26 0 13 31 17 23 18 -36 0 -46 9 -71 21 -64 12 7 20 -13 20 -49 0 -33 8 -61 19 -61 10 0 22 -20 27 -45 5 -25 9 63 10 195 1 166 -4 226 -17 194 -11 -27 -28 -41 -41 -33 -12 8 -30 2 -40 -13 -14 -22 -17 -22 -18 -2 0 15 -9 21 -20 14 -12 -8 -21 32 -23 104 -5 139 -8 167 -23 206 -7 17 -16 53 -20 80 -5 28 -10 -1 -11 -64z"/> <path d="M515 5071 c-8 -44 -4 -49 36 -39 40 10 45 5 40 -40 -3 -28 2 -46 12 -40 9 6 22 -2 28 -18 7 -18 29 -25 60 -19 63 12 62 33 -2 62 -28 13 -45 33 -38 44 8 14 27 9 54 -15 40 -35 40 -35 13 9 -15 25 -39 45 -53 45 -14 0 -25 14 -25 30 0 36 -33 40 -45 5 -7 -20 -15 -20 -39 0 -26 22 -33 18 -41 -24z"/> <path d="M865 5065 c-14 -4 -25 -20 -25 -35 0 -29 54 -56 67 -34 15 26 -17 78 -42 69z"/> <path d="M5820 5067 c1 -40 36 -68 72 -56 29 10 32 8 9 -8 -23 -16 -24 -34 -5 -99 13 -43 24 -101 24 -128 0 -31 11 -49 30 -49 24 0 30 32 30 171 0 104 -7 161 -18 145 -12 -19 -21 -21 -31 -5 -8 13 -23 17 -33 11 -11 -7 -33 -2 -49 12 -16 13 -29 16 -29 6z"/> <path d="M4961 4965 c0 -58 8 -105 19 -105 24 0 24 114 0 170 -13 29 -18 12 -19 -65z"/> <path d="M1257 4987 c-14 -50 14 -87 66 -87 24 0 32 10 24 31 -7 17 -24 27 -38 21 -16 -6 -29 8 -33 34 l-7 44 -12 -43z"/> <path d="M1502 4914 c-1 -65 5 -92 20 -83 12 8 18 35 13 61 -6 32 0 48 18 48 15 0 27 10 27 22 0 12 -13 17 -29 11 -15 -6 -33 0 -38 13 -5 13 -11 -19 -11 -72z"/> <path d="M1585 4726 c0 -80 8 -140 16 -135 9 5 21 -6 27 -26 17 -55 -5 136 -26 225 -17 73 -19 67 -17 -64z"/> <path d="M5300 4840 c0 -9 28 -26 61 -38 47 -16 60 -15 54 2 -9 28 -115 61 -115 36z"/> <path d="M653 4811 c-8 -21 -1 -25 23 -16 30 11 31 8 6 -22 -24 -30 -24 -32 5 -21 19 7 49 0 68 -15 19 -15 12 2 -15 37 -56 72 -71 78 -87 37z"/> <path d="M1248 4788 c7 -17 12 -35 12 -40 0 -4 13 -8 29 -8 42 0 61 41 29 62 -46 29 -84 21 -70 -14z"/> <path d="M1503 4685 c-3 -38 -15 -45 -78 -46 l-75 -1 70 -24 c61 -21 72 -35 82 -104 9 -56 13 -64 15 -27 2 30 14 57 28 62 19 7 20 15 2 37 -13 15 -27 55 -32 88 -6 43 -10 47 -12 15z"/> <path d="M140 4647 c35 -18 22 -36 -44 -66 -36 -15 -53 -32 -40 -36 14 -5 38 2 54 15 15 13 38 17 51 10 15 -10 20 1 16 31 -4 25 -18 48 -32 51 -15 3 -17 0 -5 -5z"/> <path d="M5581 4449 c7 -125 2 -149 -31 -136 -34 13 -41 80 -9 91 25 8 4 76 -23 76 -10 0 -18 -27 -18 -60 0 -48 -9 -60 -43 -60 l-44 0 44 -46 c23 -26 43 -54 43 -62 0 -9 18 -39 40 -67 25 -31 40 -81 40 -132 0 -62 5 -76 24 -57 13 13 23 60 24 105 0 66 6 80 34 73 86 -23 94 42 8 72 -11 4 -20 62 -19 130 0 67 -4 118 -8 113 -5 -5 -22 2 -38 15 -25 21 -29 12 -24 -55z"/> <path d="M1350 4460 c-22 -8 -53 -10 -68 -4 -16 6 -24 3 -19 -8 5 -10 21 -43 36 -73 34 -68 61 -71 61 -7 0 26 12 52 28 58 16 6 26 -1 25 -19 -3 -29 203 -118 224 -97 5 6 -1 10 -14 10 -12 0 -23 14 -23 30 0 17 -13 30 -30 30 -16 0 -47 17 -67 37 -46 46 -101 61 -153 43z"/> <path d="M720 4375 c0 -30 18 -58 48 -74 62 -33 83 -121 29 -121 -20 0 -37 7 -37 15 0 8 -22 15 -50 15 -51 0 -65 -27 -32 -61 10 -10 22 -46 25 -79 4 -33 14 -65 23 -72 14 -10 25 -129 33 -371 1 -27 14 -41 36 -40 29 3 35 -15 37 -102 3 -146 28 -159 28 -14 0 130 39 132 44 2 4 -119 36 -107 36 13 0 74 -10 117 -31 135 -17 14 -27 36 -21 50 5 15 -14 29 -49 36 -60 12 -91 139 -39 156 14 5 11 42 -9 106 -16 54 -25 105 -19 114 6 10 -4 17 -21 17 -40 0 -40 32 1 48 45 17 52 15 35 -13 -10 -17 -4 -16 19 2 37 30 39 18 37 -157 l-1 -70 21 75 c15 54 32 75 60 75 53 0 127 -41 103 -57 -30 -20 -51 -124 -24 -118 13 3 28 -8 33 -23 6 -17 1 -22 -12 -14 -13 8 -24 3 -25 -12 -5 -63 7 -148 24 -165 27 -28 22 -146 -7 -159 -20 -10 -20 -14 0 -24 14 -6 25 -28 25 -48 0 -20 -11 -41 -25 -47 -20 -8 -20 -10 0 -11 29 -2 34 -62 5 -62 -11 0 -19 -34 -19 -75 2 -60 5 -67 19 -35 13 30 18 16 19 -55 0 -52 8 -95 17 -95 25 0 84 -246 71 -296 -8 -31 -3 -44 18 -44 33 0 31 86 -5 236 -14 57 -14 98 -1 120 17 30 20 28 20 -10 1 -25 18 -54 40 -65 48 -26 61 -26 61 -1 0 11 -13 20 -28 20 -28 0 -36 23 -64 185 -11 69 -33 87 -93 77 -23 -3 -18 274 5 288 12 7 15 23 7 34 -8 13 -4 16 10 8 13 -8 23 -66 23 -136 0 -105 4 -118 30 -96 34 28 41 100 10 100 -11 0 -20 59 -20 136 0 109 -8 145 -40 179 -42 46 -60 240 -20 215 11 -7 20 -3 20 9 0 11 -9 21 -20 21 -11 0 -20 27 -20 60 0 35 11 60 25 60 18 1 17 6 -3 18 -42 27 -82 4 -82 -48 0 -49 -58 -51 -97 -3 -31 39 3 183 43 180 19 -1 34 8 34 21 0 20 -45 37 -225 85 -26 7 -35 -2 -35 -38z m382 -1144 c10 6 18 -26 18 -71 0 -51 -8 -78 -20 -70 -12 7 -15 21 -9 31 6 11 2 19 -10 19 -11 0 -20 29 -19 65 0 36 6 54 11 40 6 -14 19 -20 29 -14z"/> <path d="M1108 4368 c7 -17 12 -70 12 -117 0 -60 10 -90 31 -99 18 -6 26 -3 19 8 -15 24 30 26 67 2 15 -9 37 -38 50 -64 13 -26 44 -57 68 -69 25 -13 38 -29 30 -37 -7 -8 3 -8 23 0 21 8 42 4 51 -11 10 -16 19 -7 26 28 5 29 5 48 -1 42 -6 -6 -22 -1 -37 12 -15 12 -27 16 -27 8 0 -8 -13 0 -30 16 -36 36 -39 67 -6 78 38 12 1 75 -45 75 -23 0 -36 9 -29 20 7 11 2 20 -10 20 -14 0 -18 -16 -10 -41 12 -36 5 -40 -58 -36 -74 5 -113 120 -48 142 36 12 -1 55 -47 55 -29 0 -38 -9 -29 -32z"/> <path d="M374 4294 c-6 -17 -7 -47 -2 -67 6 -21 2 -59 -8 -86 -13 -35 -9 -58 14 -85 18 -20 38 -57 45 -81 10 -34 14 -26 17 35 4 71 6 74 20 30 14 -43 17 -44 20 -10 6 57 42 -75 54 -200 6 -55 21 -107 33 -117 14 -9 2 -13 -29 -8 -43 7 -51 2 -43 -28 5 -20 18 -37 27 -37 10 0 18 -18 18 -40 0 -22 8 -40 19 -40 10 0 23 -20 28 -45 5 -25 7 45 3 155 -8 241 -24 323 -73 393 -20 29 -37 86 -37 126 0 51 -10 76 -35 85 -19 7 -40 21 -47 31 -7 10 -18 5 -24 -11z"/> <path d="M131 4261 c-6 -10 7 -24 29 -31 22 -7 41 -28 41 -46 2 -42 36 27 37 76 1 27 -1 27 -20 0 -16 -23 -24 -24 -31 -5 -12 29 -40 33 -56 6z"/> <path d="M5958 4186 c-1 -9 -1 -43 1 -76 1 -33 -4 -51 -13 -40 -14 18 -47 22 -122 13 -15 -2 -20 -13 -13 -25 7 -12 35 -16 61 -9 27 7 48 3 48 -9 0 -64 57 -10 64 61 6 66 -18 145 -26 85z"/> <path d="M232 3870 c8 -77 17 -144 21 -148 17 -21 4 231 -14 258 -13 21 -16 -14 -7 -110z"/> <path d="M1207 3975 c-7 -11 -1 -26 11 -34 13 -8 21 -27 18 -43 -11 -52 51 -28 65 25 15 55 -65 99 -94 52z"/> <path d="M5820 3982 c0 -10 31 -23 69 -30 40 -8 72 -27 77 -48 6 -21 10 -14 12 19 2 43 -9 54 -60 65 -83 16 -98 15 -98 -6z"/> <path d="M657 3800 c4 -44 15 -75 24 -69 10 6 13 23 7 38 -6 15 -1 33 12 41 16 10 16 21 -1 42 -39 46 -50 32 -42 -52z"/> <path d="M1258 3835 c-10 -31 -8 -95 4 -95 8 0 31 -6 50 -13 28 -11 32 -6 21 22 -10 26 -6 32 17 24 51 -20 33 19 -21 44 -51 23 -68 27 -71 18z"/> <path d="M1223 3564 l74 -34 -49 -90 c-61 -113 -60 -136 3 -160 28 -11 46 -29 39 -40 -16 -26 27 -104 50 -90 16 10 19 -15 23 -166 1 -32 10 -43 30 -36 19 8 27 0 23 -21 -3 -18 3 -36 15 -40 12 -5 17 24 12 73 -4 44 -15 75 -25 69 -10 -6 -18 9 -18 35 0 25 -6 92 -13 147 -9 82 -5 108 24 137 35 36 6 85 -35 60 -9 -6 -16 -2 -16 9 0 11 11 24 25 30 17 7 18 15 4 26 -12 10 -28 33 -35 52 -14 40 -94 76 -160 74 -35 -2 -28 -9 29 -35z m114 -164 c2 -73 -1 -79 -47 -75 -70 5 -31 155 40 155 2 0 5 -36 7 -80z"/> <path d="M5866 3525 c0 -19 12 -53 27 -74 15 -22 27 -60 27 -85 0 -26 9 -46 19 -46 11 0 23 -74 27 -165 5 -122 7 -103 7 71 0 130 -8 241 -18 247 -11 7 -7 20 8 30 22 14 22 20 -3 37 -47 31 -93 23 -94 -15z"/> <path d="M5332 3491 c7 -17 3 -43 -9 -57 -39 -47 -20 -113 31 -109 53 4 53 5 25 56 -13 26 -13 39 0 39 10 0 29 -35 40 -78 15 -53 35 -81 66 -89 68 -18 115 -15 115 7 0 11 -19 20 -41 20 -84 0 -121 37 -108 107 13 70 -6 98 -86 122 -35 11 -42 7 -33 -18z"/> <path d="M888 3328 c8 -32 22 -94 31 -138 l16 -80 2 105 c2 62 -6 105 -18 105 -12 0 -16 8 -10 19 6 10 1 25 -12 33 -16 10 -19 -2 -9 -44z"/> <path d="M5200 3216 c0 -20 -7 -35 -15 -34 -37 6 -43 -6 -24 -54 12 -33 13 -62 1 -75 -11 -15 -8 -32 10 -49 24 -22 32 -18 47 20 16 39 19 33 20 -41 1 -86 0 -87 -54 -75 -139 33 -186 15 -184 -72 l2 -46 21 45 c21 44 116 66 116 27 0 -9 19 -22 42 -28 23 -6 36 -20 30 -31 -7 -11 -3 -26 9 -33 11 -8 21 -65 20 -127 0 -62 3 -153 8 -203 5 -49 10 -117 12 -150 l4 -60 13 60 c10 48 23 60 66 60 79 0 87 24 11 38 l-66 12 4 135 c1 74 4 151 5 170 4 72 162 26 162 -47 0 -22 9 -35 20 -28 13 8 20 -42 20 -134 1 -102 7 -137 20 -116 11 17 20 20 20 8 0 -12 32 -39 70 -59 39 -21 70 -47 70 -57 0 -11 12 -3 27 17 18 25 40 33 63 24 30 -12 32 -9 10 17 -14 16 -51 30 -82 30 -32 0 -58 9 -58 20 0 11 -13 20 -30 20 -16 0 -30 10 -30 23 0 12 -13 33 -28 45 -20 15 -23 35 -11 67 23 58 54 57 82 -3 13 -29 33 -44 49 -38 15 5 23 18 17 28 -16 25 40 23 165 -7 103 -23 106 -26 108 -95 2 -63 4 -60 21 29 16 84 14 104 -14 124 -40 30 -51 270 -12 283 25 8 33 66 8 60 -8 -2 -49 14 -90 34 -73 37 -98 70 -52 70 13 0 2 19 -24 41 -44 38 -49 39 -60 6 -11 -30 -14 -29 -24 9 -8 31 -28 45 -68 47 -84 5 -93 7 -137 31 -23 12 -74 29 -115 36 -41 8 -75 23 -75 33 0 11 -9 14 -20 7 -11 -7 -20 -5 -20 5 0 9 -18 16 -40 16 -25 0 -40 -13 -40 -35z m204 -104 c7 -11 45 -19 85 -18 39 1 71 -5 71 -13 0 -8 23 -25 50 -37 59 -27 63 -20 15 28 -33 34 -33 35 2 22 20 -8 45 -14 56 -14 10 0 16 -16 13 -35 -3 -20 5 -33 19 -30 14 3 25 -11 25 -30 0 -19 27 -57 59 -85 85 -71 114 -275 38 -272 -26 1 -53 16 -61 32 -10 22 -14 19 -15 -13 0 -24 10 -48 24 -54 50 -20 -104 -12 -158 8 -80 30 -119 99 -57 99 17 0 30 8 30 18 0 22 -102 44 -220 49 -102 3 -123 22 -106 93 18 78 27 85 65 51 27 -24 56 -29 120 -19 99 16 72 47 -42 48 -87 0 -169 59 -151 107 8 21 25 28 48 20 30 -10 30 -7 -4 20 -33 27 -35 35 -12 51 31 20 84 7 106 -26z"/> <path d="M5612 2745 c24 -24 37 -27 43 -11 4 13 22 18 40 11 21 -8 27 -4 17 12 -8 12 -41 23 -75 23 -57 0 -58 -2 -25 -35z"/> <path d="M5700 3217 c0 -11 8 -14 19 -8 10 6 24 -7 32 -31 9 -31 19 -36 35 -20 31 31 50 27 58 -10 5 -27 13 -25 55 11 41 35 44 46 21 61 -38 24 -220 21 -220 -3z"/> <path d="M1420 3123 c0 -7 41 -15 90 -18 50 -3 90 3 90 13 0 10 -40 19 -90 19 -49 0 -90 -6 -90 -14z"/> <path d="M960 3041 c0 -22 -9 -41 -20 -41 -12 0 -19 -56 -17 -135 2 -74 7 -108 12 -75 8 52 12 54 24 20 19 -52 3 -110 -30 -110 -15 0 -31 -8 -37 -17 -13 -21 31 -123 53 -123 8 0 15 -22 15 -49 0 -26 9 -71 20 -100 15 -40 13 -51 -10 -51 -17 0 -29 7 -28 15 11 65 -7 101 -52 110 -39 7 -50 1 -50 -28 0 -20 9 -37 20 -37 11 0 20 -18 20 -40 0 -22 10 -40 22 -40 14 0 18 -19 10 -50 -7 -29 -4 -50 8 -50 11 0 20 18 20 41 0 50 54 73 98 42 17 -13 46 -29 62 -35 128 -51 160 -73 160 -109 0 -52 44 -50 77 4 31 50 6 76 -74 77 -33 0 -44 9 -36 28 8 21 -11 33 -68 42 -43 7 -84 22 -90 32 -7 10 -20 13 -30 7 -11 -6 -19 7 -19 29 0 22 -9 45 -20 52 -28 17 -25 110 3 110 15 0 18 31 10 95 -13 102 13 177 44 128 14 -21 20 -19 31 8 17 44 6 54 -57 54 -34 0 -51 11 -51 33 -1 28 -3 28 -20 2 -16 -24 -19 -21 -20 16 0 26 9 41 20 34 11 -7 21 -5 22 4 9 90 7 130 -6 139 -9 5 -16 -9 -16 -32z"/> <path d="M742 2820 c2 -152 3 -150 -42 -110 -22 20 -40 26 -40 14 0 -13 22 -37 48 -54 26 -18 54 -52 62 -76 13 -41 15 -40 29 16 7 33 7 75 -3 94 -9 18 -17 59 -17 90 -1 31 -10 74 -20 96 -13 29 -18 11 -17 -70z"/> <path d="M1245 2725 c0 -102 8 -185 17 -185 21 0 21 131 -1 270 -14 88 -16 77 -16 -85z"/> <path d="M1560 2869 c0 -17 9 -26 20 -19 25 16 26 -16 1 -41 -11 -12 -11 -57 0 -117 23 -117 16 -128 -50 -85 -64 42 -114 43 -98 2 7 -17 24 -27 38 -21 16 6 35 -15 48 -54 16 -46 27 -57 39 -37 13 21 19 19 30 -8 8 -22 -14 -74 -61 -146 -286 -438 -378 -568 -430 -609 -54 -43 -57 -49 -27 -74 43 -36 102 -1 94 55 -3 24 25 76 70 129 42 48 121 159 176 247 126 203 184 293 210 323 11 13 20 33 20 44 0 10 15 22 34 26 30 5 30 9 1 38 -22 22 -33 78 -37 190 -6 144 -20 187 -63 188 -8 0 -15 -14 -15 -31z"/> <path d="M4767 2835 c-9 -14 -14 -86 -12 -160 5 -184 -54 -175 -64 10 -3 41 -11 81 -18 89 -37 36 -50 -55 -59 -404 -8 -330 -13 -381 -42 -386 -34 -7 -45 -44 -13 -44 11 0 22 -97 25 -223 7 -262 56 -350 56 -101 0 106 7 143 30 151 17 7 30 2 30 -9 0 -11 9 -15 20 -8 17 11 25 -15 18 -63 -1 -7 10 -20 24 -28 14 -9 28 -35 32 -59 9 -59 43 -120 68 -120 12 0 15 18 6 45 -57 180 -72 308 -33 300 42 -8 28 30 -15 41 -41 11 -89 104 -69 136 7 10 28 -2 49 -27 47 -58 64 -40 41 41 -10 35 -11 68 -1 74 23 15 80 -10 80 -35 0 -12 6 -16 13 -9 21 21 67 -27 67 -68 0 -25 -14 -38 -40 -38 -60 0 -48 -40 20 -66 33 -13 60 -35 60 -49 0 -20 19 -23 73 -13 64 12 72 9 60 -21 -7 -19 -14 -58 -15 -88 0 -31 -6 -40 -12 -23 -22 59 -73 100 -124 100 -37 -1 -44 -6 -24 -18 16 -10 21 -28 11 -43 -9 -16 -7 -20 7 -12 37 24 164 -115 150 -165 -6 -23 -19 -48 -29 -54 -17 -10 27 -68 53 -68 7 0 11 20 9 45 -8 107 -2 120 56 107 45 -10 49 -9 20 9 -20 12 -30 32 -22 45 10 16 4 15 -17 -2 -20 -16 -37 -18 -44 -7 -45 72 276 43 334 -30 21 -27 51 -45 65 -39 35 13 169 -25 169 -48 0 -10 -32 -24 -70 -31 -39 -8 -75 -21 -81 -30 -12 -21 64 -46 91 -29 25 15 25 6 0 -59 -24 -64 9 -69 42 -6 67 129 117 121 150 -25 6 -27 17 -72 23 -100 6 -27 21 -57 33 -65 15 -11 10 -23 -13 -37 -20 -11 -30 -29 -24 -40 20 -32 69 21 69 74 0 27 -9 48 -20 48 -11 0 -20 20 -20 45 1 36 4 39 20 15 15 -23 19 -17 20 26 0 33 -8 51 -20 44 -17 -11 -30 45 -22 95 1 8 -7 15 -18 15 -11 0 -20 12 -20 27 0 15 -23 50 -51 79 -52 52 -47 73 16 63 19 -3 35 3 35 13 0 10 -18 18 -40 18 -44 0 -52 41 -20 100 25 46 -34 89 -80 60 -24 -15 -23 -24 6 -55 58 -65 44 -92 -41 -77 -41 7 -138 18 -215 24 -77 5 -156 13 -175 17 -19 4 -35 -2 -35 -14 0 -11 -22 3 -49 32 -27 30 -45 66 -39 80 7 20 -14 31 -74 39 -100 13 -121 39 -113 139 4 51 -2 75 -19 75 -15 0 -26 10 -26 21 0 12 -9 16 -20 9 -11 -7 -20 -3 -20 7 0 11 -20 23 -44 27 -34 5 -48 27 -67 111 -26 116 -21 133 32 104 22 -11 41 -12 48 -1 16 26 -7 77 -39 89 -20 8 -24 32 -16 83 6 40 2 92 -10 116 -32 67 -45 171 -23 185 22 13 7 49 -21 49 -10 0 -25 -11 -33 -25z m-18 -732 c-3 -4 -25 -1 -47 7 -51 16 -54 65 -7 131 l35 49 12 -90 c7 -49 10 -93 7 -97z m951 -485 c0 -10 14 -18 30 -18 17 0 30 -10 30 -22 0 -14 -19 -18 -49 -10 -151 38 -207 91 -81 76 39 -5 70 -16 70 -26z"/> <path d="M1323 2710 c1 -55 8 -122 17 -150 l16 -50 4 50 c6 77 -2 162 -21 208 -12 31 -16 15 -16 -58z"/> <path d="M1093 2610 c6 -16 22 -31 34 -32 13 0 39 -4 58 -8 21 -4 35 6 35 23 0 16 -8 24 -19 18 -10 -6 -24 -3 -31 9 -21 33 -90 24 -77 -10z"/> <path d="M87 2463 c6 -129 -27 -187 -69 -121 -14 22 -17 21 -18 -7 0 -23 15 -35 47 -35 25 0 53 -6 60 -14 8 -7 34 -16 59 -20 43 -5 43 -5 5 24 -21 17 -45 30 -52 30 -7 0 -10 20 -6 45 5 25 -1 86 -12 135 -19 89 -19 89 -14 -37z"/> <path d="M540 2510 c0 -57 0 -57 -69 -30 -40 15 -51 13 -51 -10 0 -17 18 -30 40 -30 24 0 41 -14 42 -35 1 -21 5 -25 11 -10 6 14 24 25 40 25 21 0 26 12 17 40 -18 57 33 51 86 -10 48 -55 56 -90 23 -90 -13 0 -16 -17 -9 -41 7 -22 3 -53 -10 -69 -19 -22 -10 -30 49 -41 39 -7 71 -21 71 -31 0 -10 7 -17 15 -16 44 7 82 -6 121 -43 25 -23 53 -36 64 -29 13 8 20 -44 20 -137 0 -139 3 -149 40 -139 28 7 40 1 40 -22 0 -17 10 -32 22 -32 13 0 18 18 12 40 -6 22 -2 35 8 29 27 -17 22 10 -7 39 -14 14 -37 21 -50 17 -14 -5 -25 1 -25 13 0 12 9 22 20 22 26 0 26 74 0 90 -12 7 -15 21 -9 31 6 11 3 19 -7 19 -11 0 -24 18 -30 40 -7 27 -27 40 -64 40 -34 0 -50 9 -45 25 13 39 -48 74 -130 74 -53 1 -75 10 -75 31 0 17 7 30 15 30 8 0 15 31 15 68 0 38 -7 64 -15 59 -8 -5 -15 5 -15 22 0 17 11 31 25 32 34 1 -62 50 -130 67 -49 11 -55 7 -55 -38z"/> <path d="M4940 2531 c0 -16 9 -34 20 -41 12 -7 15 -21 9 -31 -6 -11 3 -39 20 -63 37 -54 40 -23 6 84 -24 79 -55 107 -55 51z"/> <path d="M1465 2464 c-32 -5 -45 -20 -45 -54 0 -26 -11 -54 -23 -62 -16 -10 -20 -4 -11 19 14 35 -18 44 -61 17 -17 -11 -7 -26 33 -50 l57 -33 55 80 c61 88 61 94 -5 83z"/> <path d="M1170 2400 c34 -38 90 -55 90 -27 0 20 -67 66 -98 66 -21 1 -19 -9 8 -39z"/> <path d="M1631 2328 c-94 -161 -293 -458 -313 -465 -10 -3 -18 -16 -18 -28 0 -12 -15 -41 -33 -63 -19 -23 17 9 79 70 62 62 119 107 126 100 8 -6 8 -1 0 12 -15 27 77 186 108 186 24 0 24 4 2 -74 -14 -48 -12 -66 10 -74 15 -6 28 -34 28 -63 0 -29 9 -46 20 -39 12 8 20 -24 20 -80 0 -56 8 -88 20 -80 11 7 20 -8 20 -34 0 -27 -7 -37 -15 -24 -26 40 -145 56 -145 21 0 -17 -9 -36 -21 -43 -13 -9 -16 6 -8 43 9 44 7 50 -9 27 -18 -24 -21 -16 -18 37 5 63 8 66 67 57 58 -10 61 -7 53 47 -9 59 -85 106 -100 62 -4 -13 -19 -23 -34 -23 -19 0 -23 -22 -15 -80 6 -47 1 -91 -13 -108 -16 -19 -17 -33 -3 -41 120 -74 -66 -107 -206 -37 -68 35 -91 21 -44 -26 18 -18 29 -45 23 -60 -6 -15 7 -37 27 -48 51 -27 61 -25 61 9 0 40 39 60 66 33 16 -16 13 -22 -13 -22 -20 0 -30 -9 -23 -20 8 -13 27 -10 54 8 22 16 53 24 68 18 18 -6 28 4 29 27 1 58 88 114 119 77 14 -16 33 -25 42 -19 10 6 18 -39 18 -100 0 -68 9 -111 22 -111 14 0 18 24 11 65 -7 36 0 106 16 155 l28 90 2 -135 c0 -76 10 -135 21 -135 24 0 27 26 21 225 -5 151 -4 155 42 155 66 -1 101 -27 86 -67 -17 -42 18 -43 52 -1 21 24 21 39 3 69 -13 21 -24 66 -24 99 0 53 -7 60 -60 60 -35 0 -60 11 -60 25 -1 17 -7 15 -22 -5 -18 -25 -20 -22 -12 12 5 26 -2 41 -19 41 -20 0 -27 -23 -24 -81 14 -245 -21 -318 -52 -107 -7 52 -22 95 -32 95 -32 0 -22 288 13 357 53 107 19 116 -41 11z"/> <path d="M5888 2373 c-41 -44 -21 -108 24 -76 15 10 35 126 22 122 -2 -1 -23 -22 -46 -46z"/> <path d="M5050 2299 c-16 -25 7 -99 31 -99 11 0 19 10 19 21 0 12 9 16 20 9 11 -7 20 0 20 14 0 36 -74 81 -90 55z"/> <path d="M5427 2248 c81 -76 83 -88 15 -93 -63 -5 -51 -52 23 -87 93 -44 108 -207 19 -209 -50 -1 -51 -3 -16 -25 20 -13 59 -45 85 -70 l47 -46 -1 56 c0 31 -8 95 -17 143 -19 97 12 132 69 75 17 -18 41 -32 52 -32 10 0 13 -10 5 -23 -8 -14 -5 -18 8 -10 56 35 154 -57 166 -159 9 -72 13 -81 15 -33 3 67 41 81 67 25 7 -16 13 11 12 60 -1 50 -5 70 -10 45 -5 -25 -22 -45 -37 -45 -34 0 -39 52 -7 71 30 19 0 37 -172 101 -193 74 -238 131 -236 299 0 12 -37 23 -82 25 l-82 4 77 -72z"/> <path d="M5784 2265 c-18 -6 -13 -20 18 -46 24 -22 38 -51 31 -68 -6 -16 -3 -35 8 -42 10 -6 19 -29 19 -50 0 -49 34 -51 46 -4 9 32 10 32 12 -1 1 -20 11 -31 22 -24 11 7 21 1 21 -14 1 -14 9 -8 18 14 21 54 8 80 -50 107 -27 12 -49 34 -49 49 0 38 -64 91 -96 79z"/> <path d="M1660 2221 c0 -24 9 -38 19 -32 11 7 52 -2 93 -18 91 -39 88 -39 88 11 0 33 -9 40 -40 32 -22 -6 -45 -2 -51 8 -7 10 -21 13 -31 7 -11 -7 -33 -2 -49 12 -24 20 -29 16 -29 -20z"/> <path d="M157 2162 c-4 -29 -2 -164 4 -302 6 -137 14 -218 19 -180 5 45 12 12 20 -90 9 -118 14 -57 16 232 3 325 -1 391 -24 391 -16 0 -31 -23 -35 -51z m38 -268 c-5 -46 -8 -3 -8 96 0 99 4 137 8 84 4 -52 4 -133 0 -180z"/> <path d="M1170 2152 c-40 -29 -9 -66 33 -40 14 8 18 5 10 -8 -17 -27 25 -55 47 -31 34 34 -51 108 -90 79z"/> <path d="M5124 2106 c19 -4 29 -20 24 -35 -6 -14 4 -40 21 -57 17 -17 31 -41 31 -54 0 -12 9 -17 20 -10 11 7 20 -2 20 -19 0 -17 14 -31 32 -31 23 0 28 10 17 35 -8 19 -17 56 -19 82 -3 46 -99 107 -157 101 -13 -2 -8 -7 11 -12z"/> <path d="M540 2079 c0 -12 9 -16 20 -9 19 12 31 -83 23 -180 -2 -26 2 -32 13 -16 27 43 101 6 114 -56 11 -48 21 -56 59 -46 26 6 53 1 60 -11 8 -12 22 -16 32 -10 11 6 19 1 19 -11 0 -12 9 -17 19 -11 30 19 4 63 -50 88 -27 12 -49 35 -49 50 0 36 -78 132 -79 98 -1 -14 -27 -25 -62 -25 -47 0 -61 9 -58 35 8 81 -3 125 -31 125 -16 0 -30 -10 -30 -21z"/> <path d="M4418 2060 c-6 -16 -5 -84 3 -150 l13 -120 3 96 c3 87 7 95 43 84 22 -7 40 -4 40 7 0 11 -17 26 -39 33 -21 6 -42 27 -45 46 -6 28 -9 29 -18 4z"/> <path d="M1107 1953 c7 -20 13 -45 13 -55 0 -10 18 -18 40 -18 22 0 40 11 40 23 0 13 -6 18 -13 11 -7 -7 -31 7 -53 31 -32 36 -38 38 -27 8z"/> <path d="M500 1867 c0 -26 8 -47 19 -47 10 0 22 -16 27 -35 5 -19 10 2 12 47 1 60 -6 81 -28 81 -18 0 -30 -18 -30 -46z"/> <path d="M0 1729 c0 -56 27 -50 61 12 17 33 14 39 -20 39 -31 0 -41 -13 -41 -51z"/> <path d="M950 1740 c-16 -26 8 -64 31 -49 11 6 19 3 19 -8 0 -11 -11 -24 -25 -30 -19 -7 -18 -16 5 -33 23 -17 24 -26 5 -33 -61 -25 -20 -57 70 -57 109 0 148 37 50 46 -36 4 -61 15 -54 25 6 11 1 19 -12 19 -15 0 -20 22 -15 59 6 39 -1 63 -19 70 -38 15 -41 14 -55 -9z"/> <path d="M1805 1716 c12 -38 67 -63 106 -48 32 12 30 17 -19 43 -68 35 -98 37 -87 5z"/> <path d="M731 1583 c7 -18 18 -68 24 -110 11 -75 12 -76 36 -31 13 25 20 60 14 77 -6 17 13 0 42 -37 39 -51 47 -76 32 -103 -25 -48 -24 -105 1 -89 11 7 20 35 20 62 0 32 16 56 45 69 l45 20 -45 -9 c-44 -8 -59 30 -46 123 2 23 -24 34 -64 27 -8 -1 -15 6 -15 16 0 9 -23 17 -51 17 -39 0 -48 -8 -38 -32z"/> <path d="M5323 1522 c-21 -13 -19 -19 8 -29 22 -9 30 -27 23 -53 -14 -54 15 -51 40 5 35 78 -4 120 -71 77z"/> <path d="M991 1482 c-6 -10 0 -22 14 -27 20 -7 19 -16 -2 -42 -15 -18 -36 -28 -45 -22 -10 7 -24 -3 -31 -21 -16 -41 26 -136 53 -120 30 19 103 -10 88 -34 -7 -11 -1 -28 14 -38 41 -26 70 -22 42 6 -13 13 -24 40 -24 60 0 24 -15 36 -43 36 l-43 0 43 37 c40 35 41 42 14 94 -16 31 -24 64 -19 73 6 9 -3 16 -20 16 -16 0 -35 -8 -41 -18z"/> <path d="M544 1436 c-28 -28 -32 -89 -6 -105 10 -6 24 13 31 41 8 34 22 48 42 40 16 -6 29 -3 29 6 0 10 -14 23 -32 30 -40 15 -36 16 -64 -12z"/> <path d="M1310 1396 c10 -76 23 -90 39 -39 13 42 74 77 66 38 -3 -13 9 -24 25 -25 32 -1 78 46 79 80 0 11 -8 7 -19 -10 -11 -16 -20 -21 -20 -10 0 11 -40 22 -89 23 -88 4 -89 3 -81 -57z"/> <path d="M5485 1407 c-14 -6 -25 -43 -25 -82 0 -39 5 -66 12 -60 10 10 49 158 41 153 -2 0 -14 -6 -28 -11z"/> <path d="M780 1300 c-16 -9 -54 -26 -83 -40 -54 -25 -58 -91 -9 -125 15 -10 14 -14 -3 -15 -32 0 -33 -64 -1 -96 18 -18 32 -11 60 31 42 65 45 85 11 85 -14 0 -37 18 -50 40 -22 34 -20 40 11 40 20 0 48 11 63 25 22 20 25 19 15 -9 -8 -24 -4 -31 17 -23 16 6 29 22 29 34 -1 43 -30 68 -60 53z"/> <path d="M5025 1135 c12 -37 88 -42 102 -6 9 24 -2 31 -49 31 -40 0 -58 -9 -53 -25z"/> <path d="M4947 955 c-54 -62 -147 -190 -147 -203 0 -20 -311 -502 -353 -546 -12 -13 -28 -19 -35 -12 -6 7 -12 -1 -12 -19 0 -22 13 -28 41 -21 22 6 36 16 31 21 -6 5 1 21 14 34 66 66 215 283 203 296 -4 4 19 37 52 72 32 36 59 78 59 93 0 16 16 37 35 48 19 12 29 21 21 21 -23 1 93 197 133 225 11 8 15 19 9 25 -6 6 -29 -9 -51 -34z"/> <path d="M280 950 c0 -16 -9 -30 -19 -30 -22 0 -69 -158 -52 -175 6 -7 11 -1 11 12 0 12 14 23 31 23 17 0 26 -8 20 -18 -6 -10 -3 -39 7 -65 12 -33 17 2 15 118 -2 91 -5 165 -8 165 -3 0 -5 -13 -5 -30z"/> <path d="M4454 854 c2 -57 -4 -112 -14 -124 -14 -17 -32 -123 -38 -226 -1 -15 -10 -21 -20 -15 -10 6 -23 -3 -30 -20 -8 -22 -25 -28 -54 -18 -27 8 -38 6 -30 -7 7 -11 1 -24 -13 -29 -18 -6 -15 -18 10 -43 19 -19 35 -43 35 -53 0 -11 11 -17 24 -14 13 3 25 -8 25 -25 2 -55 58 -31 75 32 9 35 29 74 44 87 19 15 26 49 20 97 -6 52 -4 62 8 35 9 -21 23 -30 29 -19 7 11 4 33 -6 49 -29 46 -22 63 21 49 22 -7 40 -4 40 8 0 11 16 16 35 11 22 -7 20 -2 -7 12 -26 14 -57 71 -86 160 -55 171 -73 185 -68 53z"/> <path d="M1623 822 c-122 -90 -187 -160 -172 -184 6 -9 -8 -55 -30 -101 -23 -47 -41 -96 -41 -111 0 -14 -8 -26 -19 -26 -10 0 -19 -16 -19 -35 -3 -163 -13 -195 -57 -201 -64 -9 -56 -44 10 -44 31 0 45 -7 32 -15 -17 -11 -13 -28 13 -60 71 -87 91 -56 107 160 4 63 23 138 42 167 19 28 30 70 24 92 -6 23 6 55 28 77 22 22 39 48 39 60 0 85 168 212 225 170 52 -38 43 -63 -39 -102 -70 -33 -72 -36 -30 -51 24 -9 44 -26 44 -37 0 -12 22 -21 49 -21 29 0 52 -14 57 -35 5 -19 10 -2 12 38 3 89 51 141 69 73 6 -24 18 -38 25 -30 16 15 68 -22 68 -48 0 -10 -13 -18 -30 -18 -23 0 -30 -27 -30 -120 0 -94 7 -120 30 -120 23 0 29 -19 25 -75 -5 -59 -14 -75 -45 -75 -40 0 -43 -7 -23 -55 8 -19 10 -19 11 0 1 14 15 25 31 25 37 0 43 12 60 115 13 77 11 85 -27 85 -23 0 -42 10 -42 21 0 13 17 16 40 9 23 -7 40 -4 40 9 0 11 -13 21 -29 21 -40 0 -56 33 -40 84 13 41 16 41 40 8 23 -31 26 -29 38 26 19 83 -11 127 -123 184 -125 62 -216 136 -216 174 0 55 -40 46 -147 -34z"/> <path d="M4998 836 c-25 -36 -51 -70 -58 -76 -36 -30 -100 -140 -81 -140 11 0 21 8 21 19 0 10 27 48 60 84 33 36 60 72 60 80 0 8 15 29 32 47 18 17 28 36 23 42 -6 6 -31 -19 -57 -56z"/> <path d="M5368 856 c-23 -36 35 -118 65 -93 20 16 35 16 56 -2 16 -14 40 -18 53 -10 15 9 19 7 11 -6 -7 -11 1 -26 17 -32 17 -7 30 -35 30 -62 0 -57 6 -60 60 -31 40 22 76 -37 49 -81 -7 -12 2 -38 21 -59 19 -21 27 -48 19 -62 -9 -15 -7 -19 7 -11 82 51 28 -87 -111 -286 -85 -120 -85 -121 -35 -121 27 0 50 8 50 19 0 10 12 30 27 46 15 15 43 56 61 92 19 35 42 59 53 52 10 -6 19 0 19 15 0 14 41 48 90 74 166 88 140 185 -100 363 -127 94 -190 154 -190 180 0 41 -48 54 -70 19 -7 -11 2 -20 19 -20 17 0 31 -9 31 -20 0 -31 -54 -24 -141 18 -49 24 -84 31 -91 18z m578 -377 c7 -25 0 -39 -18 -39 -15 0 -28 -9 -28 -20 0 -11 9 -20 20 -20 11 0 20 -13 20 -30 0 -16 -9 -30 -20 -30 -11 0 -27 0 -35 0 -8 0 -15 9 -15 19 0 11 -18 32 -39 48 -30 22 -34 35 -18 56 25 32 28 97 4 97 -9 0 -17 14 -17 31 0 43 132 -58 146 -112z"/> <path d="M626 578 c-31 -45 -86 -110 -124 -145 -60 -57 -133 -152 -194 -256 -12 -20 -38 -55 -58 -77 -20 -22 -29 -40 -21 -40 9 0 5 -13 -9 -30 -14 -17 -16 -30 -6 -30 11 0 32 25 47 55 42 83 117 185 209 285 78 85 241 320 222 320 -5 0 -35 -37 -66 -82z"/> <path d="M1059 481 c-130 -160 -219 -236 -148 -126 44 68 -227 -181 -276 -253 -28 -42 -35 -45 -35 -16 0 20 14 50 30 67 32 32 40 67 15 67 -16 0 -185 -190 -185 -209 0 -21 72 -11 97 14 16 16 30 17 39 5 35 -49 105 -33 127 29 12 36 35 61 55 61 19 0 57 23 84 52 26 29 73 70 103 91 l55 40 -21 -56 c-12 -31 -28 -61 -35 -67 -37 -27 -143 -180 -126 -180 11 0 25 9 32 20 7 12 20 16 28 11 8 -5 15 2 15 16 0 29 82 149 127 188 17 14 55 21 85 16 30 -6 55 -1 55 10 0 10 -13 19 -29 19 -80 0 -30 98 52 99 39 1 62 115 26 129 -13 5 -57 -36 -99 -90 -41 -55 -79 -96 -83 -92 -10 11 92 219 128 259 17 19 27 40 22 45 -5 5 -68 -62 -138 -149z"/> <path d="M3990 530 c5 -44 10 -105 10 -135 0 -45 9 -55 49 -55 38 0 50 12 55 55 5 47 14 54 61 49 76 -8 70 30 -8 47 -46 10 -55 18 -35 31 24 15 23 21 -2 38 -39 25 -60 25 -60 0 0 -34 -56 -22 -68 15 -6 19 -7 -1 -2 -45z"/> <path d="M2335 548 c-7 -7 -4 -36 7 -64 11 -29 15 -71 10 -94 -12 -46 34 -96 106 -119 23 -8 42 -23 42 -34 0 -10 -11 -14 -25 -7 -14 7 -10 1 8 -14 18 -15 36 -45 40 -66 5 -27 29 -43 78 -51 39 -6 83 -19 98 -28 20 -13 25 -9 16 14 -7 18 -2 37 11 42 18 8 18 14 -2 28 -64 46 -68 299 -3 265 55 -30 79 -24 79 20 0 22 9 40 20 40 11 0 20 15 20 33 0 27 -13 30 -85 16 -47 -8 -110 -17 -140 -19 -72 -5 -83 -18 -57 -67 12 -22 16 -54 10 -72 -18 -45 -62 -5 -78 70 -18 80 -116 147 -155 107z m320 -300 c4 -63 1 -71 -16 -43 -12 20 -15 55 -8 78 9 28 6 38 -9 28 -12 -7 -22 -26 -22 -42 0 -16 -9 -29 -20 -29 -29 0 -25 75 5 87 48 19 65 -1 70 -79z"/> <path d="M4754 487 c-8 -7 -4 -25 7 -39 33 -39 29 -151 -6 -177 -35 -25 -62 -151 -33 -151 10 0 17 -7 16 -15 -15 -94 -1 -105 132 -105 77 0 130 9 130 21 0 11 -15 18 -33 15 -18 -3 -37 5 -42 19 -4 14 6 25 25 25 18 0 26 10 19 21 -7 12 -27 16 -44 10 -25 -10 -26 -7 -5 19 20 25 19 30 -6 30 -18 0 -37 8 -43 18 -16 26 10 84 31 71 21 -13 22 -4 6 39 -7 18 -25 32 -41 32 -22 0 -26 16 -16 68 10 56 5 73 -28 90 -47 26 -52 26 -69 9z"/> <path d="M1804 415 c-25 -12 -42 -31 -37 -43 8 -25 120 -18 129 7 3 9 23 12 45 7 46 -13 53 24 7 42 -44 17 -91 13 -144 -13z"/> <path d="M3551 240 c-53 -87 -108 -170 -124 -182 -29 -25 -36 -58 -12 -58 9 0 33 32 54 70 20 39 45 70 54 70 9 0 17 10 17 21 0 12 21 50 47 85 64 85 98 154 78 154 -10 0 -60 -72 -114 -160z"/> <path d="M3358 294 c-184 -227 -222 -294 -169 -294 41 0 51 10 51 49 0 26 11 60 25 75 33 35 143 179 162 211 30 50 -18 21 -69 -41z"/> <path d="M88 291 c-25 -65 24 -101 62 -44 19 29 42 48 51 43 9 -6 22 -2 29 10 7 12 -16 20 -59 20 -44 0 -77 -11 -83 -29z"/> <path d="M1545 304 c-62 -9 -65 -104 -3 -104 24 0 46 -16 52 -38 5 -21 40 -54 78 -74 37 -21 68 -49 68 -63 0 -14 18 -25 40 -25 22 0 40 9 40 20 0 29 55 25 67 -5 6 -16 10 -14 11 7 2 22 -26 37 -93 50 -81 15 -94 24 -90 62 3 30 -14 55 -54 79 -33 19 -62 49 -65 66 -4 20 -22 29 -51 25z"/> <path d="M4000 280 c0 -22 4 -40 8 -40 5 0 22 -5 38 -11 37 -15 64 52 30 74 -45 28 -76 19 -76 -23z"/> <path d="M1800 282 c0 -13 -8 -19 -18 -13 -10 6 -23 -4 -30 -21 -9 -23 -4 -29 17 -21 16 6 35 3 42 -8 6 -10 45 -18 85 -18 69 1 71 3 24 21 -27 11 -65 35 -85 52 -23 21 -35 24 -35 8z"/> <path d="M2252 269 c-18 -18 -32 -65 -32 -110 0 -57 -8 -79 -30 -79 -16 0 -30 -13 -30 -30 0 -26 12 -31 75 -30 8 1 16 16 17 35 1 19 4 44 7 55 3 11 7 38 8 60 2 26 15 38 38 34 42 -7 47 41 7 74 -21 18 -35 16 -60 -9z"/> <path d="M3680 200 c0 -25 -19 -48 -50 -60 -38 -14 -49 -31 -43 -65 4 -25 3 -33 -2 -19 -6 20 -15 21 -37 3 -38 -32 -35 -52 7 -53 49 -1 85 32 85 78 0 22 9 33 22 25 12 -7 16 -35 9 -61 -11 -46 -7 -48 83 -48 73 0 89 5 70 24 -13 13 -24 41 -24 62 0 32 -9 36 -54 25 l-54 -14 47 38 46 37 -53 35 c-50 33 -52 33 -52 -7z"/> <path d="M4109 197 c33 -106 36 -162 9 -180 -18 -12 8 -16 76 -12 111 5 176 107 125 194 -15 27 -18 26 -18 -5 -1 -40 -40 -35 -149 21 -57 28 -57 28 -43 -18z"/> <path d="M5961 99 c-1 -28 -12 -62 -25 -75 -19 -19 -17 -24 9 -24 41 0 64 69 37 115 -18 31 -21 29 -21 -16z"/> <path d="M1186 61 c-6 -21 -25 -43 -43 -48 -19 -5 -10 -9 20 -11 56 -2 108 43 88 77 -21 33 -54 24 -65 -18z"/> </g> </svg> 