<?xml version="1.0" standalone="no"?>
<!DOCTYPE svg PUBLIC "-//W3C//DTD SVG 20010904//EN"
 "http://www.w3.org/TR/2001/REC-SVG-20010904/DTD/svg10.dtd">
<svg version="1.0" xmlns="http://www.w3.org/2000/svg"
 width="576.000000pt" height="576.000000pt" viewBox="0 0 576.000000 576.000000"
 preserveAspectRatio="xMidYMid meet">

<g transform="translate(0.000000,576.000000) scale(0.100000,-0.100000)"
fill="#000000" stroke="none">
<path d="M2400 3165 c0 -3 0 -155 0 -337 l-1 -333 686 -3 685 -2 0 340 0 340
-95 0 -95 0 0 -245 0 -245 -205 0 -205 0 0 160 0 160 -85 0 -85 0 0 -160 0
-160 -210 0 -210 0 0 245 0 245 -90 0 c-49 0 -90 -2 -90 -5z"/>
<path d="M1790 2258 l0 -138 30 0 c30 0 30 1 30 55 l0 55 60 0 60 0 0 -55 c0
-54 0 -55 30 -55 l30 0 0 138 0 137 -30 0 c-30 0 -30 -1 -30 -52 l0 -53 -60 0
-60 0 0 53 c0 51 0 52 -30 52 l-30 0 0 -137z"/>
<path d="M2280 2261 l0 -139 80 0 c70 -1 83 2 108 23 23 20 27 31 27 80 0 50
-3 60 -29 82 -25 21 -37 24 -78 21 l-48 -5 0 38 c0 37 -2 39 -30 39 l-30 0 0
-139z m142 2 c35 -32 10 -93 -38 -93 -40 0 -59 64 -28 94 20 21 43 20 66 -1z"/>
<path d="M2140 2333 c-97 -27 -122 -134 -46 -195 26 -22 113 -23 140 -3 19 14
19 15 1 35 -13 14 -22 17 -29 10 -17 -17 -62 -11 -81 10 -18 20 -17 20 58 20
l77 0 0 29 c0 52 -71 107 -120 94z m58 -75 c3 -15 -3 -18 -37 -16 -38 1 -52
14 -34 32 14 14 68 1 71 -16z"/>
<path d="M2519 2325 c0 -3 0 -32 0 -65 0 -146 -1 -140 26 -140 22 0 25 4 25
39 0 73 11 102 41 113 21 7 29 17 29 34 0 26 -18 31 -51 14 -13 -7 -19 -7 -19
0 0 10 -49 15 -51 5z"/>
<path d="M2669 2301 c-24 -24 -29 -38 -29 -76 0 -38 5 -52 29 -76 51 -51 145
-39 177 23 41 79 -8 157 -99 158 -40 0 -53 -5 -78 -29z m113 -38 c23 -21 23
-55 -1 -77 -45 -40 -99 11 -73 69 14 29 46 33 74 8z"/>
<path d="M2878 2225 l-3 -105 28 0 c25 0 27 3 27 39 0 67 11 102 36 113 40 18
54 -4 54 -83 l0 -69 30 0 30 0 0 83 c0 70 -3 87 -20 105 -23 24 -77 30 -111
12 -13 -7 -19 -7 -19 0 0 5 -11 10 -24 10 -24 0 -25 -1 -28 -105z"/>
<path d="M4136 2243 c-11 -11 -6 -23 9 -23 8 0 15 4 15 9 0 13 -16 22 -24 14z"/>
<path d="M4130 2165 c0 -33 4 -45 15 -45 11 0 15 12 15 45 0 33 -4 45 -15 45
-11 0 -15 -12 -15 -45z"/>
<path d="M4170 2164 c0 -50 15 -59 24 -14 3 18 12 30 21 30 10 0 15 -10 15
-30 0 -21 5 -30 16 -30 8 0 12 5 9 10 -3 6 -2 10 4 10 5 0 13 -4 16 -10 9 -14
95 -8 95 7 0 9 -12 11 -40 8 -35 -5 -40 -3 -40 16 0 15 5 19 22 17 27 -4 36
18 10 26 -28 9 -50 -2 -61 -32 l-9 -27 -1 28 c-1 15 -4 27 -8 28 -5 1 -23 2
-40 4 -33 3 -33 2 -33 -41z"/>
<path d="M2375 2000 c-3 -5 -1 -10 4 -10 6 0 11 -11 11 -25 0 -14 5 -25 10
-25 6 0 10 11 10 25 0 14 5 25 10 25 6 0 10 5 10 10 0 6 -11 10 -24 10 -14 0
-28 -4 -31 -10z"/>
<path d="M2461 1976 c-1 -37 0 -38 13 -20 15 19 15 19 30 -1 15 -19 15 -18 15
20 -1 22 -3 32 -6 23 -2 -10 -13 -18 -23 -18 -10 0 -21 8 -23 18 -3 9 -5 -1
-6 -22z"/>
<path d="M2560 1975 c0 -32 3 -35 28 -34 l27 1 -25 8 c-23 7 -24 8 -6 15 19 8
19 9 0 16 -18 6 -17 8 6 17 l25 11 -27 0 c-25 1 -28 -2 -28 -34z"/>
<path d="M2690 1975 c0 -32 3 -35 28 -34 l27 1 -25 7 -25 7 25 9 25 9 -25 6
-25 7 25 11 25 11 -27 0 c-25 1 -28 -2 -28 -34z"/>
<path d="M2780 1974 c0 -33 2 -35 27 -32 34 4 43 36 17 55 -31 22 -44 16 -44
-23z m45 -4 c0 -8 -8 -16 -17 -18 -13 -2 -18 3 -18 18 0 15 5 20 18 18 9 -2
17 -10 17 -18z"/>
<path d="M2886 1997 c-26 -19 -13 -57 20 -57 16 0 24 5 23 18 0 10 -3 12 -6 5
-8 -21 -33 -15 -33 7 0 14 7 20 21 20 11 0 17 5 14 10 -8 13 -18 13 -39 -3z"/>
<path d="M2970 1975 c0 -32 3 -35 28 -34 l27 1 -25 8 -25 7 25 11 c18 8 20 11
8 11 -10 1 -18 5 -18 10 0 5 8 12 18 14 10 3 6 5 -10 6 -25 1 -28 -2 -28 -34z"/>
<path d="M3108 1975 c9 -19 21 -35 26 -35 5 0 7 3 3 6 -3 4 1 21 10 38 16 31
16 31 -4 13 -18 -16 -21 -16 -26 -2 -4 8 -11 15 -16 15 -6 0 -3 -16 7 -35z"/>
<path d="M3190 1995 c-19 -23 -8 -50 22 -53 35 -4 56 29 32 52 -19 20 -38 20
-54 1z m48 -22 c5 -18 -28 -29 -38 -12 -5 7 -6 17 -3 22 7 12 35 5 41 -10z"/>
<path d="M3292 1978 c-2 -34 1 -38 22 -38 13 0 27 7 30 16 9 24 7 54 -4 54 -5
0 -10 -13 -10 -30 0 -42 -27 -40 -33 3 -4 31 -4 31 -5 -5z"/>
<path d="M3430 1975 c0 -36 1 -37 14 -19 14 18 15 18 21 2 12 -31 25 -20 24
20 -1 25 -3 29 -6 14 l-5 -24 -24 23 -24 22 0 -38z"/>
<path d="M3530 1975 c0 -32 3 -35 28 -34 l27 1 -25 8 c-23 7 -24 8 -6 15 19 8
19 9 0 16 -18 6 -17 8 6 17 l25 11 -27 0 c-25 1 -28 -2 -28 -34z"/>
<path d="M3617 2003 c-4 -3 -7 -19 -7 -35 0 -25 3 -28 33 -27 23 1 26 3 10 6
-27 5 -30 20 -5 26 16 4 16 5 0 6 -10 0 -18 5 -18 10 0 5 8 12 18 14 14 4 13
5 -4 6 -11 0 -24 -2 -27 -6z"/>
<path d="M3700 1975 c0 -30 3 -35 23 -35 22 0 47 16 47 31 0 15 -32 39 -51 39
-15 0 -19 -7 -19 -35z m48 -2 c-5 -26 -38 -29 -38 -4 0 15 6 21 21 21 14 0 19
-5 17 -17z"/>
</g>
</svg>
